<?xml version="1.0" encoding="UTF-8" standalone="no"?>
<!-- Generator: Adobe Illustrator 11 Build 196, SVG Export Plug-In . SVG Version: 6.0.0 Build 78)  -->

<svg
   xmlns:xapGImg="http://ns.adobe.com/xap/1.0/g/img/"
   xmlns:xap="http://ns.adobe.com/xap/1.0/"
   xmlns:ns5="http://ns.adobe.com/SaveForWeb/1.0/"
   xmlns:ns4="http://ns.adobe.com/Variables/1.0/"
   xmlns:ns3="http://ns.adobe.com/AdobeIllustrator/10.0/"
   xmlns:x="adobe:ns:meta/"
   xmlns:dc="http://purl.org/dc/elements/1.1/"
   xmlns:cc="http://creativecommons.org/ns#"
   xmlns:rdf="http://www.w3.org/1999/02/22-rdf-syntax-ns#"
   xmlns:svg="http://www.w3.org/2000/svg"
   xmlns="http://www.w3.org/2000/svg"
   xmlns:xlink="http://www.w3.org/1999/xlink"
   xmlns:sodipodi="http://sodipodi.sourceforge.net/DTD/sodipodi-0.dtd"
   xmlns:inkscape="http://www.inkscape.org/namespaces/inkscape"
   ns3:viewOrigin="115.6538 447.5581"
   ns3:rulerOrigin="0 0"
   ns3:pageBounds="0 842 595 0"
   width="50.995998"
   height="63.226002"
   viewBox="0 0 50.996 63.226"
   overflow="visible"
   enable-background="new 0 0 363.968 53.226"
   xml:space="preserve"
   id="svg2"
   version="1.1"
   inkscape:version="0.92.3 (2405546, 2018-03-11)"
   sodipodi:docname="UCT_Shield.svg"
   style="overflow:visible"><sodipodi:namedview
   pagecolor="#ffffff"
   bordercolor="#666666"
   borderopacity="1"
   objecttolerance="10"
   gridtolerance="10"
   guidetolerance="10"
   inkscape:pageopacity="0"
   inkscape:pageshadow="2"
   inkscape:window-width="1920"
   inkscape:window-height="1017"
   id="namedview253"
   showgrid="false"
   inkscape:zoom="1.5715668"
   inkscape:cx="114.50891"
   inkscape:cy="-1.2050762"
   inkscape:window-x="1592"
   inkscape:window-y="-8"
   inkscape:window-maximized="1"
   inkscape:current-layer="layer1"
   fit-margin-left="5"
   fit-margin-top="5"
   fit-margin-bottom="5"
   fit-margin-right="5" />
	<metadata
   id="metadata4">

			</metadata>
		<g
   id="Background"
   ns3:layer="yes"
   ns3:printed="no"
   ns3:dimmedPercent="100"
   ns3:rgbTrio="#4F008000FFFF"
   transform="translate(5,5)">
				</g><g
   id="Guides"
   ns3:layer="yes"
   ns3:dimmedPercent="100"
   ns3:rgbTrio="#4F008000FFFF"
   transform="translate(5,5)">
				</g>
	<g
   inkscape:groupmode="layer"
   id="layer1"
   inkscape:label="Layer 1"
   transform="translate(5,5)"><path
     ns3:knockout="Off"
     d="m 0,0 h 40.996 c 0,0 0,15.687 0,25.717 0,20.632 -20.498,27.509 -20.498,27.509 C 20.498,53.226 0,46.349 0,25.746 0,15.705 0,0 0,0 Z"
     id="path25"
     inkscape:connector-curvature="0"
     style="clip-rule:evenodd;fill-rule:evenodd" /><path
     ns3:knockout="Off"
     d="M 40.393,0.598 V 25.717 C 40.393,44.74 22.558,51.835 20.498,52.591 18.438,51.835 0.603,44.742 0.603,25.746 V 0.598 Z"
     id="path27"
     inkscape:connector-curvature="0"
     style="clip-rule:evenodd;fill:#ffffff;fill-rule:evenodd" /><path
     ns3:knockout="Off"
     d="M 38.584,25.717 C 38.584,42.218 24.16,49.17 20.498,50.664 16.835,49.17 2.412,42.221 2.412,25.746 V 2.393 h 36.172 z"
     id="path29"
     inkscape:connector-curvature="0"
     style="clip-rule:evenodd;fill-rule:evenodd" /><path
     ns3:knockout="Off"
     d="M 20.498,50.016 C 16.532,48.35 3.015,41.496 3.015,25.746 V 2.991 H 37.982 V 25.717 C 37.981,41.493 24.463,48.351 20.498,50.016 Z"
     id="path31"
     inkscape:connector-curvature="0"
     style="clip-rule:evenodd;fill-rule:evenodd" /><path
     ns3:knockout="Off"
     d="m 20.654,19.917 c 0.815,0 1.284,0.595 1.284,1.284 0,0.176 -0.052,0.501 -0.205,0.646 h -0.086 c 0,0 -0.029,10e-4 -0.029,-0.057 0,-0.059 0.068,-0.19 0.089,-0.286 0.024,-0.114 0.034,-0.292 0.034,-0.351 0,-0.376 -0.31,-1.024 -0.756,-1.024 h -0.339 c -0.062,0 -0.068,0.044 -0.115,0.086 0.052,0.199 0.237,0.185 0.381,0.317 0.213,0.197 0.311,0.533 0.311,0.738 0,0.159 -0.143,0.602 -0.411,0.602 h -1.081 c -0.231,0 -0.287,-0.365 -0.287,-0.461 0,-0.058 -0.05,-0.128 -0.05,-0.187 0,-0.66 0.52,-1.307 1.26,-1.307 z"
     id="path33"
     inkscape:connector-curvature="0"
     style="fill:#ffffff" /><path
     ns3:knockout="Off"
     d="m 20.765,18.929 c 0.155,0 0.588,0.083 0.692,0.224 0.051,0.067 0.16,0.106 0.16,0.165 0,0.006 0.271,0.43 0.268,0.545 v 0.267 c -0.469,-0.384 -0.802,-0.495 -1.232,-0.495 -0.395,0 -0.738,0.136 -1.128,0.448 -0.008,-0.035 -0.034,-0.023 -0.034,-0.081 0,-0.06 0.042,-0.119 0.057,-0.168 0.183,-0.588 0.671,-0.905 1.217,-0.905 z"
     id="path35"
     inkscape:connector-curvature="0"
     style="fill:#ffffff" /><path
     ns3:knockout="Off"
     d="m 22.613,18.812 c 0.848,0.136 1.77,0.42 2.658,0.881 -0.056,0.034 -0.112,0.069 -0.159,0.073 -0.688,0.086 -1.384,0.174 -2.082,0.219 -0.153,-0.359 -0.45,-1.057 -0.45,-1.116 0,-0.058 0.003,-0.031 0.033,-0.057 z"
     id="path37"
     inkscape:connector-curvature="0"
     style="fill:#ffffff" /><path
     ns3:knockout="Off"
     d="m 18.666,18.788 0.257,0.029 c -0.275,0.401 -0.445,0.819 -0.546,1.288 h -0.375 c -0.472,0.001 -1.933,-0.259 -2.187,-0.362 0.913,-0.556 1.938,-0.758 2.851,-0.955 z"
     id="path39"
     inkscape:connector-curvature="0"
     style="fill:#ffffff" /><path
     ns3:knockout="Off"
     d="m 21.507,18.646 c 0.125,0.023 0.284,0.007 0.422,0.055 0.325,0.114 0.65,0.866 0.65,1.134 0,0.059 0.023,0.136 0.048,0.214 -0.027,0.029 -0.023,0.044 0.001,0.327 -0.022,0.271 -0.122,0.691 -0.412,0.929 -0.029,-0.747 -0.131,-0.561 -0.106,-1.259 0.009,-0.259 -0.102,-0.599 -0.361,-0.872 -0.346,-0.367 -0.618,-0.434 -0.985,-0.434 -0.879,0 -1.469,0.735 -1.469,1.329 0,0.059 -0.026,0.075 -0.035,0.097 -0.015,0.093 0.005,0.19 -0.009,0.281 -0.043,0.286 -0.191,0.564 -0.158,0.854 -0.191,-0.004 -0.341,-0.569 -0.341,-0.726 0,-0.059 -0.05,-0.141 -0.05,-0.2 0,-0.524 0.438,-1.601 0.9,-1.708 z"
     id="path41"
     inkscape:connector-curvature="0"
     style="fill:#ffffff" /><path
     ns3:knockout="Off"
     d="m 17.247,18.198 c 0.118,0 0.198,0.436 0.198,0.436 0,0.18 -0.165,0.131 -0.329,0.205 -0.234,0.106 -0.498,0.177 -0.742,0.258 -0.296,0.104 -0.616,0.253 -0.919,0.396 -0.1,-0.116 -0.208,-0.343 -0.208,-0.458 0,-0.206 1.917,-0.837 2,-0.837 z"
     id="path43"
     inkscape:connector-curvature="0"
     style="fill:#ffffff" /><path
     ns3:knockout="Off"
     d="m 23.827,18.176 c 0.132,0 2.085,0.643 2.085,0.87 0,0.081 -0.141,0.4 -0.208,0.4 -0.063,0 -0.568,-0.232 -0.845,-0.348 -0.336,-0.141 -0.722,-0.228 -1.086,-0.367 -0.106,-0.039 -0.106,-0.125 -0.106,-0.156 0,-0.014 0.07,-0.399 0.16,-0.399 z"
     id="path45"
     inkscape:connector-curvature="0"
     style="fill:#ffffff" /><path
     ns3:knockout="Off"
     d="m 15.586,17.894 c 0.079,0.146 0.179,0.411 0.179,0.47 0,0.095 -0.522,0.305 -0.632,0.33 -0.023,-0.017 -0.232,-0.405 -0.232,-0.47 -10e-4,-0.09 0.495,-0.331 0.685,-0.33 z"
     id="path47"
     inkscape:connector-curvature="0"
     style="fill:#ffffff" /><path
     ns3:knockout="Off"
     d="m 25.555,17.871 c 0.068,0 0.704,0.283 0.704,0.376 0,0.059 -0.125,0.299 -0.204,0.445 -0.047,-0.009 -0.71,-0.221 -0.71,-0.375 0,-0.076 0.148,-0.446 0.21,-0.446 z"
     id="path49"
     inkscape:connector-curvature="0"
     style="fill:#ffffff" /><path
     ns3:knockout="Off"
     d="m 20.889,17.729 c 0.061,0 0.098,0.005 0.568,0.023 0.669,0.024 1.417,0.162 2.133,0.381 v 0.122 c 0.001,0.1 -0.088,0.369 -0.171,0.369 -0.062,0 -0.681,-0.161 -1.001,-0.207 -0.293,-0.044 -0.617,-0.054 -0.913,-0.1 L 20.761,18.292 C 20.733,18.267 20.707,18.243 20.68,18.216 v -0.384 c 0.028,-0.046 0.146,-0.103 0.209,-0.103 z"
     id="path51"
     inkscape:connector-curvature="0"
     style="fill:#ffffff" /><path
     ns3:knockout="Off"
     d="m 20.474,17.729 c 0.054,0.074 0.082,0.175 0.082,0.235 0,0.347 -0.127,0.353 -0.461,0.353 h -0.313 c -0.392,0 -1.886,0.329 -2.053,0.329 -0.13,0 -0.21,-0.317 -0.21,-0.411 0,-0.059 0.002,-0.079 0.036,-0.122 0.169,-0.055 0.367,-0.1 0.566,-0.144 0.537,-0.117 1.087,-0.152 1.631,-0.217 z"
     id="path53"
     inkscape:connector-curvature="0"
     style="fill:#ffffff" /><path
     ns3:knockout="Off"
     d="m 22.419,16.999 c 0.266,0 2.876,0.577 2.876,0.812 0,0.12 -0.165,0.444 -0.206,0.482 -0.526,-0.166 -1.062,-0.351 -1.611,-0.49 -0.37,-0.091 -0.847,-0.095 -1.217,-0.269 0.023,-0.267 0.027,-0.281 -0.002,-0.312 0.029,-0.05 0.019,-0.223 0.16,-0.223 z"
     id="path55"
     inkscape:connector-curvature="0"
     style="fill:#ffffff" /><path
     ns3:knockout="Off"
     d="m 18.795,16.999 c 0.116,0.134 0.106,0.339 0.106,0.47 0,0.145 -0.186,0.126 -0.308,0.147 -0.394,0.07 -0.821,0.138 -1.208,0.259 -0.436,0.135 -0.996,0.35 -1.441,0.44 -0.081,-0.146 -0.18,-0.388 -0.18,-0.445 0,-0.167 0.521,-0.283 0.552,-0.292 0.785,-0.267 1.685,-0.486 2.479,-0.579 z"
     id="path57"
     inkscape:connector-curvature="0"
     style="fill:#ffffff" /><path
     ns3:knockout="Off"
     d="m 21.306,16.879 c 0.061,0 0.498,0.048 0.749,0.078 0.052,0.044 0.081,0.087 0.081,0.146 0,0.059 -0.025,0.17 -0.049,0.234 0.021,0.017 -0.011,0.123 -0.029,0.2 -0.625,-0.021 -0.863,-0.069 -0.924,-0.069 h -1.179 c -0.062,0 -0.546,0.048 -0.823,0.07 -0.09,-0.097 -0.106,-0.285 -0.106,-0.4 0,-0.059 0.002,-0.112 0.03,-0.155 0.251,-0.056 0.689,-0.104 0.752,-0.104 z"
     id="path59"
     inkscape:connector-curvature="0"
     style="fill:#ffffff" /><path
     ns3:knockout="Off"
     d="m 16.839,16.575 c 0.062,0 0.085,0.005 0.1,0.03 0.035,0.119 0.11,0.302 0.108,0.362 v 0.145 l -2.238,0.805 c -0.104,-0.146 -0.181,-0.365 -0.181,-0.423 0,-0.093 0.294,-0.229 0.329,-0.243 0.152,-0.073 1.5,-0.676 1.882,-0.676 z"
     id="path61"
     inkscape:connector-curvature="0"
     style="fill:#ffffff" /><path
     ns3:knockout="Off"
     d="m 24.235,16.551 c 0.148,0 2.345,0.734 2.345,0.918 0,0.059 -0.1,0.276 -0.159,0.395 -0.016,0.024 -0.026,0.03 -0.088,0.03 -0.062,0 -1.02,-0.4 -1.547,-0.584 -0.213,-0.074 -0.479,-0.113 -0.693,-0.202 -0.054,-0.023 -0.08,-0.086 -0.08,-0.144 0,-0.058 0.075,-0.264 0.134,-0.38 0.021,-0.009 0.026,-0.033 0.088,-0.033 z"
     id="path63"
     inkscape:connector-curvature="0"
     style="fill:#ffffff" /><path
     ns3:knockout="Off"
     d="m 15,16.362 c 0.062,0 0.065,0.025 0.086,0.034 0.061,0.114 0.136,0.332 0.136,0.391 0,0.103 -0.604,0.346 -0.708,0.376 C 14.466,17.112 14.309,16.785 14.309,16.704 14.31,16.64 14.954,16.362 15,16.362 Z"
     id="path65"
     inkscape:connector-curvature="0"
     style="fill:#ffffff" /><path
     ns3:knockout="Off"
     d="m 26.098,16.314 c 0.099,0 0.778,0.336 0.778,0.413 0,0.097 -0.139,0.412 -0.223,0.412 -0.062,0 -0.487,-0.212 -0.735,-0.316 -0.025,-0.015 -0.03,-0.025 -0.03,-0.084 0,-0.06 0.074,-0.211 0.074,-0.27 0.001,-0.059 0.074,-0.155 0.136,-0.155 z"
     id="path67"
     inkscape:connector-curvature="0"
     style="fill:#ffffff" /><path
     ns3:knockout="Off"
     d="m 21.062,16.033 c 0.062,0 0.399,0.005 0.89,0.046 0.33,0.03 2.011,0.292 2.011,0.459 0,0.121 -0.061,0.34 -0.156,0.481 -0.354,-0.069 -0.723,-0.149 -1.068,-0.205 -0.515,-0.082 -1.519,-0.17 -1.581,-0.17 H 20.812 C 20.76,16.62 20.73,16.567 20.703,16.517 c 0,-0.025 0.025,-0.048 0,-0.237 0.006,-0.274 0.166,-0.247 0.359,-0.247 z"
     id="path69"
     inkscape:connector-curvature="0"
     style="fill:#ffffff" /><path
     ns3:knockout="Off"
     d="m 20.37,16.033 c 0.061,0 0.073,0.023 0.152,0.051 0.002,0.03 0.034,0.078 0.033,0.483 -0.027,0.027 -0.052,0.051 -0.081,0.078 h -0.446 c -0.584,0 -2.6,0.376 -2.749,0.4 C 17.225,16.92 17.15,16.718 17.151,16.66 v -0.152 c 0.701,-0.227 1.471,-0.333 2.206,-0.404 0.416,-0.039 0.951,-0.071 1.013,-0.071 z"
     id="path71"
     inkscape:connector-curvature="0"
     style="fill:#ffffff" /><path
     ns3:knockout="Off"
     d="m 25.104,15.987 h 0.103 c 0.037,-10e-4 0.632,0.208 0.632,0.293 0,0.093 -0.135,0.411 -0.234,0.411 -0.062,0 -0.402,-0.116 -0.597,-0.198 -0.024,-0.008 -0.057,-0.061 -0.057,-0.121 -0.001,-0.058 0.1,-0.261 0.153,-0.385 z"
     id="path73"
     inkscape:connector-curvature="0"
     style="fill:#ffffff" /><path
     ns3:knockout="Off"
     d="m 15.975,15.986 c 0.074,0 0.184,0.434 0.184,0.447 0,0.06 -0.005,0.068 -0.03,0.083 -0.223,0.105 -0.598,0.248 -0.661,0.248 -0.083,0 -0.221,-0.424 -0.221,-0.46 0,-0.054 0.695,-0.318 0.728,-0.318 z"
     id="path75"
     inkscape:connector-curvature="0"
     style="fill:#ffffff" /><path
     ns3:knockout="Off"
     d="m 22.536,15.375 h 0.177 c 0.062,-10e-4 0.426,0.093 0.629,0.144 0.003,0.031 0.027,0.019 0.027,0.078 0,0.064 -0.089,0.436 -0.171,0.436 -0.062,0 -0.438,-0.066 -0.656,-0.103 -0.047,-0.006 -0.111,-0.084 -0.111,-0.145 0,-0.058 0.05,-0.262 0.105,-0.41 z"
     id="path77"
     inkscape:connector-curvature="0"
     style="fill:#ffffff" /><path
     ns3:knockout="Off"
     d="m 18.568,15.374 c 0.099,0 0.135,0.379 0.135,0.411 0,0.245 -0.731,0.248 -0.857,0.245 -0.054,-0.122 -0.105,-0.351 -0.105,-0.409 0,-0.125 0.727,-0.247 0.827,-0.247 z"
     id="path79"
     inkscape:connector-curvature="0"
     style="fill:#ffffff" /><path
     ns3:knockout="Off"
     d="m 21.499,15.282 c 0.087,-0.002 0.809,-0.076 0.809,0.197 0,0.059 -0.024,0.238 -0.053,0.36 -0.053,0.026 -0.145,0.028 -0.207,0.028 -0.193,0 -0.409,0.009 -0.593,-0.081 -0.033,-0.041 -0.036,-0.095 -0.036,-0.153 0,-0.059 0.026,-0.229 0.08,-0.351 z"
     id="path81"
     inkscape:connector-curvature="0"
     style="fill:#ffffff" /><path
     ns3:knockout="Off"
     d="m 19.385,15.281 h 0.276 c 0.075,0.12 0.079,0.25 0.079,0.34 0,0.058 0,0.075 -0.02,0.125 -0.101,0.087 -0.313,0.122 -0.439,0.12 h -0.352 c -0.028,-0.125 -0.077,-0.328 -0.077,-0.387 0,-0.187 0.367,-0.199 0.533,-0.198 z"
     id="path83"
     inkscape:connector-curvature="0"
     style="fill:#ffffff" /><path
     ns3:knockout="Off"
     d="m 25.382,15.162 c 0.069,0 1.84,0.639 1.84,0.766 0,0.058 -0.125,0.311 -0.231,0.482 -0.602,-0.26 -1.193,-0.497 -1.785,-0.719 -0.008,-0.018 -0.035,10e-4 -0.035,-0.058 0.001,-0.047 0.118,-0.471 0.211,-0.471 z"
     id="path85"
     inkscape:connector-curvature="0"
     style="fill:#ffffff" /><path
     ns3:knockout="Off"
     d="m 15.765,15.162 c 0.092,0 0.197,0.482 0.197,0.482 0,0.059 -0.054,0.08 -0.08,0.097 -0.347,0.125 -0.968,0.386 -1.031,0.386 -0.061,0 -0.514,0.205 -0.659,0.257 -0.081,-0.146 -0.205,-0.399 -0.205,-0.457 0,-0.174 1.729,-0.765 1.778,-0.765 z"
     id="path87"
     inkscape:connector-curvature="0"
     style="fill:#ffffff" /><path
     ns3:knockout="Off"
     d="m 21.678,14.433 c 0.185,0 1.562,0.196 1.783,0.241 0.028,0.02 0.057,0.052 0.057,0.111 0,0.095 -0.054,0.402 -0.197,0.448 l -1.803,-0.264 c -0.025,-0.289 0,-0.419 0,-0.478 10e-4,-0.058 0.1,-0.058 0.16,-0.058 z"
     id="path89"
     inkscape:connector-curvature="0"
     style="fill:#ffffff" /><path
     ns3:knockout="Off"
     d="m 19.361,14.437 c 0,0 0.304,0.048 0.319,0.073 0.01,0.05 0.035,0.299 0.035,0.358 0,0.059 -0.05,0.1 -0.079,0.141 -0.623,0.059 -1.265,0.129 -1.914,0.223 -0.056,-0.147 -0.105,-0.375 -0.105,-0.434 0,-0.06 0.002,-0.077 0.03,-0.121 0.238,-0.065 1.551,-0.244 1.714,-0.24 z"
     id="path91"
     inkscape:connector-curvature="0"
     style="fill:#ffffff" /><path
     ns3:knockout="Off"
     d="m 18.814,13.02 3.795,0.011 c 0.122,-0.029 0.36,0.162 0.461,0.304 V 13.4 h -4.784 c 0.038,-0.226 0.356,-0.386 0.528,-0.38 z"
     id="path93"
     inkscape:connector-curvature="0"
     style="fill:#ffffff" /><path
     ns3:knockout="Off"
     d="m 19.108,12.643 3.096,0.02 c 0.004,0.032 0.179,0.086 0.177,0.162 -0.055,0.028 -0.11,0.053 -0.159,0.053 l -3.263,-0.024 c -0.029,-0.026 -0.033,-0.023 -0.033,-0.082 0,-0.109 0.09,-0.087 0.182,-0.129 z"
     id="path95"
     inkscape:connector-curvature="0"
     style="fill:#ffffff" /><path
     ns3:knockout="Off"
     d="m 19.53,12.197 2.249,0.021 c 0.054,0.009 0.184,0.083 0.184,0.143 0,0.058 -0.08,0.092 -0.083,0.147 l -2.276,-0.007 c -0.122,-0.034 -0.233,-0.025 -0.233,-0.152 -10e-4,-0.08 0.056,-0.141 0.159,-0.152 z"
     id="path97"
     inkscape:connector-curvature="0"
     style="fill:#ffffff" /><path
     ns3:knockout="Off"
     d="m 20.012,11.725 1.401,0.012 c 0.122,0.014 0.229,0.073 0.229,0.177 0,0.053 -0.024,0.112 -0.135,0.118 l -1.714,-0.006 c -0.062,-0.018 -0.188,-0.15 -0.2,-0.198 0.1,-0.114 0.301,-0.103 0.419,-0.103 z"
     id="path99"
     inkscape:connector-curvature="0"
     style="fill:#ffffff" /><path
     ns3:knockout="Off"
     d="m 19.594,11.022 c 0.493,0.059 0.75,0.138 1.122,0.138 0.302,0 0.56,-0.079 1.021,-0.138 v 0.099 c 0.003,0.059 -0.123,0.267 -0.184,0.38 -0.119,0.035 -0.294,0.059 -0.356,0.059 h -1.385 c -0.028,-0.025 -0.041,-0.073 -0.063,-0.084 -0.057,-0.112 -0.157,-0.314 -0.155,-0.373 z"
     id="path101"
     inkscape:connector-curvature="0"
     style="fill:#ffffff" /><path
     ns3:knockout="Off"
     d="m 18.086,10.029 c 0.16,0 0.451,0.267 0.441,0.422 h -0.131 c -0.101,10e-4 -0.434,-0.244 -0.434,-0.315 0,-0.061 0.059,-0.107 0.124,-0.107 z"
     id="path103"
     inkscape:connector-curvature="0"
     style="fill:#ffffff" /><path
     ns3:knockout="Off"
     d="m 18.728,10.007 c 0.262,0 0.459,0.441 0.519,0.578 -0.028,0.031 -0.026,0.057 -0.086,0.057 -0.216,0 -0.58,-0.369 -0.58,-0.518 0,-0.1 0.098,-0.117 0.147,-0.117 z"
     id="path105"
     inkscape:connector-curvature="0"
     style="fill:#ffffff" /><path
     ns3:knockout="Off"
     d="m 19.444,9.983 c 0.25,0 0.296,0.468 0.296,0.53 0,0.063 -0.068,0.171 -0.135,0.198 -0.113,-0.027 -0.309,-0.379 -0.309,-0.529 0,-0.122 0.034,-0.199 0.148,-0.199 z"
     id="path107"
     inkscape:connector-curvature="0"
     style="fill:#ffffff" /><path
     ns3:knockout="Off"
     d="m 22.666,9.96 c 0.111,0 0.111,0.103 0.111,0.116 0,0.145 -0.309,0.438 -0.428,0.495 H 22.24 c -0.026,-0.027 -0.03,-0.011 -0.03,-0.07 0,-0.078 0.259,-0.541 0.456,-0.541 z"
     id="path109"
     inkscape:connector-curvature="0"
     style="fill:#ffffff" /><path
     ns3:knockout="Off"
     d="m 22.062,9.96 c 0.116,0 0.147,0.092 0.147,0.14 0,0.081 -0.285,0.542 -0.458,0.542 -0.114,0 -0.11,-0.103 -0.11,-0.119 0.001,-0.107 0.208,-0.563 0.421,-0.563 z"
     id="path111"
     inkscape:connector-curvature="0"
     style="fill:#ffffff" /><path
     ns3:knockout="Off"
     d="m 21.309,9.96 c 0.147,0 0.21,0.185 0.21,0.247 0,0.093 -0.136,0.552 -0.296,0.552 -0.18,0 -0.148,-0.32 -0.148,-0.33 -10e-4,-0.108 0.002,-0.469 0.234,-0.469 z"
     id="path113"
     inkscape:connector-curvature="0"
     style="fill:#ffffff" /><path
     ns3:knockout="Off"
     d="m 20.69,9.96 c 0.199,0 0.21,0.275 0.21,0.352 0,0.08 -0.04,0.447 -0.198,0.447 -0.194,0 -0.221,-0.476 -0.221,-0.494 0,-0.138 0.031,-0.305 0.209,-0.305 z"
     id="path115"
     inkscape:connector-curvature="0"
     style="fill:#ffffff" /><path
     ns3:knockout="Off"
     d="m 20.049,9.96 c 0.206,0 0.283,0.264 0.283,0.386 0,0.064 -0.073,0.39 -0.173,0.39 -0.204,0 -0.295,-0.524 -0.295,-0.542 0,-0.105 0.037,-0.234 0.185,-0.234 z"
     id="path117"
     inkscape:connector-curvature="0"
     style="fill:#ffffff" /><path
     ns3:knockout="Off"
     d="m 15.931,8.334 c 0.191,-0.02 0.204,0.286 0.204,0.354 0,0.495 -0.641,0.636 -0.888,0.636 -0.473,0 -1.287,-0.458 -1.708,-0.99 z"
     id="path119"
     inkscape:connector-curvature="0"
     style="fill:#ffffff" /><path
     ns3:knockout="Off"
     d="m 24.973,8.296 c 0,0 -0.431,1.085 -1.43,1.545 -0.056,0.025 -0.235,-0.118 -0.296,-0.118 -0.062,0 -0.259,0.118 -0.321,0.118 -0.062,0 -0.235,-0.094 -0.296,-0.094 -0.062,0 -0.186,0.094 -0.247,0.094 -0.05,0 -0.234,-0.094 -0.32,-0.094 -0.062,0 -0.322,0.094 -0.348,0.094 -0.06,0 -0.258,-0.094 -0.32,-0.094 -0.062,0 -0.296,0.116 -0.357,0.116 -0.063,0 -0.272,-0.116 -0.334,-0.116 -0.062,0 -0.234,0.094 -0.295,0.094 -0.063,0 -0.235,-0.094 -0.296,-0.094 -0.062,0 -0.321,0.14 -0.383,0.14 -0.062,0 -0.272,-0.093 -0.334,-0.093 -0.061,0 -0.209,0.093 -0.271,0.093 -0.062,0 -0.309,-0.116 -0.37,-0.116 -0.063,0 -0.272,0.116 -0.334,0.116 -0.061,0 -0.309,-0.093 -0.371,-0.093 -0.198,0 -0.321,0.189 -0.37,0.189 -0.062,0 -0.181,-0.104 -0.254,-0.162 C 17.1,9.57 16.779,9.153 16.622,8.894 16.529,8.745 16.335,8.297 16.335,8.297 h 8.638 z"
     id="path121"
     inkscape:connector-curvature="0"
     style="fill:#ffffff" /><path
     ns3:knockout="Off"
     d="M 25.88,7.837 V 8.048 C 25.839,7.974 25.826,8.006 25.803,8.006 c -0.126,0 -9.182,0 -9.244,0 -0.118,0 -0.264,0 -0.422,-0.03 V 7.837 Z"
     id="path123"
     inkscape:connector-curvature="0"
     style="fill:#ffffff" /><path
     ns3:knockout="Off"
     d="m 12.53,7.51 c 0.17,0 0.293,0.33 0.559,0.33 h 2.718 c 0.053,0.052 0.082,0.106 0.079,0.163 h -3.142 c -0.102,0.003 -0.436,-0.207 -0.436,-0.351 0,-0.09 0.208,-0.142 0.222,-0.142 z"
     id="path125"
     inkscape:connector-curvature="0"
     style="fill:#ffffff" /><path
     ns3:knockout="Off"
     d="m 21.917,6.9 h 0.079 c 0.062,0 0.554,0.401 0.831,0.62 -0.025,0.055 -0.099,0.086 -0.161,0.086 -0.293,0 -0.777,-0.433 -0.777,-0.624 0,-0.061 0.025,-0.048 0.028,-0.082 z"
     id="path127"
     inkscape:connector-curvature="0"
     style="fill:#ffffff" /><path
     ns3:knockout="Off"
     d="m 20.852,6.852 c 0.126,0 0.222,0.383 0.222,0.412 0,0.198 -0.146,0.27 -0.272,0.27 -0.197,0 -0.222,-0.078 -0.222,-0.187 0,-0.078 0.142,-0.495 0.272,-0.495 z"
     id="path129"
     inkscape:connector-curvature="0"
     style="fill:#ffffff" /><path
     ns3:knockout="Off"
     d="m 21.277,6.828 h 0.102 c 0.17,0 0.535,0.523 0.535,0.554 0,0.132 -0.14,0.177 -0.221,0.177 -0.264,0 -0.47,-0.458 -0.47,-0.565 -10e-4,-0.06 0.026,-0.113 0.054,-0.166 z"
     id="path131"
     inkscape:connector-curvature="0"
     style="fill:#ffffff" /><path
     ns3:knockout="Off"
     d="m 19.855,6.828 c 0.029,0.027 0.058,0.047 0.058,0.106 0,0.128 -0.439,0.625 -0.584,0.623 H 19.031 C 19.004,7.531 19,7.546 19,7.487 19,7.428 19.662,6.881 19.855,6.828 Z"
     id="path133"
     inkscape:connector-curvature="0"
     style="fill:#ffffff" /><path
     ns3:knockout="Off"
     d="m 20.408,6.781 c 0.092,0 0.098,0.104 0.098,0.119 0,0.173 -0.244,0.659 -0.457,0.659 -0.099,0 -0.185,-0.05 -0.185,-0.152 0,-0.125 0.315,-0.626 0.544,-0.626 z"
     id="path135"
     inkscape:connector-curvature="0"
     style="fill:#ffffff" /><path
     ns3:knockout="Off"
     d="M 19.974,6.311 21.88,6.296 c 0.003,0.032 0.083,0.073 0.083,0.132 0,0.059 -0.069,0.06 -0.164,0.081 L 19.846,6.522 C 19.817,6.496 19.793,6.496 19.766,6.468 V 6.387 c 0.055,-0.028 0.131,-0.054 0.208,-0.076 z"
     id="path137"
     inkscape:connector-curvature="0"
     style="fill:#ffffff" /><path
     ns3:knockout="Off"
     d="m 27.197,6.169 c 0.706,0 1.63,0.416 1.63,1.248 0,0.994 -1.415,1.784 -2.283,1.936 -0.348,0.063 -0.717,0.204 -1.062,0.245 -0.583,0.074 -1.283,0.249 -1.877,0.738 -0.033,-0.026 -0.037,-0.023 -0.037,-0.082 0,-0.326 1.048,-0.77 1.094,-0.781 0.805,-0.245 1.73,-0.421 2.542,-0.79 0.71,-0.325 1.08,-0.783 1.08,-1.312 0,-0.565 -0.683,-0.801 -1.062,-0.801 -0.229,0 -0.863,0.151 -0.963,0.319 0.023,0.041 0.096,0.062 0.142,0.089 0.062,0.035 0.154,0.199 0.154,0.24 0,0.254 -0.247,0.389 -0.48,0.389 -0.262,0 -0.556,-0.145 -0.556,-0.437 0,-0.06 0.076,-0.198 0.142,-0.289 0.369,-0.507 1.045,-0.712 1.536,-0.712 z"
     id="path139"
     inkscape:connector-curvature="0"
     style="fill:#ffffff" /><path
     ns3:knockout="Off"
     d="m 20.864,5.228 c 0.173,0 0.407,0.109 0.407,0.342 0,0.252 -0.204,0.387 -0.419,0.387 -0.213,0 -0.371,-0.206 -0.371,-0.365 0,-0.217 0.169,-0.364 0.383,-0.364 z"
     id="path141"
     inkscape:connector-curvature="0"
     style="fill:#ffffff" /><path
     ns3:knockout="Off"
     d="m 17.911,4.549 c -0.182,0.291 -0.521,0.233 -0.768,0.422 -0.204,0.155 -0.032,0.562 -0.379,0.562 -0.06,0 -0.518,-0.094 -0.58,-0.094 -0.129,0 -0.175,-0.032 -0.32,0.153 0.183,0.235 0.443,0.365 0.443,0.624 0,0.059 -0.024,0.094 -0.024,0.153 0,0.162 -0.498,0.319 -0.703,0.365 L 14.838,6.71 C 14.701,6.688 14.43,6.904 14.323,7.064 14.207,6.966 14.062,6.784 14.062,6.652 c 0,-0.268 0.388,-0.178 0.459,-0.178 h 0.388 c 0.2,0 0.486,-0.278 0.486,-0.434 0,-0.375 -0.667,-0.392 -0.667,-0.802 0,-0.314 0.407,-0.388 0.605,-0.388 0.062,0 0.889,0.189 0.95,0.189 0.235,0 0.444,-0.225 0.648,-0.346 0.151,-0.086 0.375,-0.119 0.549,-0.125 0.321,-0.014 0.366,0.002 0.431,-0.019 z"
     id="path143"
     inkscape:connector-curvature="0"
     style="fill:#ffffff" /><path
     ns3:knockout="Off"
     d="m 20.693,37.259 c 0.309,0 0.673,0.188 0.667,0.623 0.049,3.238 0.062,3.252 0.056,3.275 0.007,0.114 0.056,0.27 0.056,0.328 0,0.059 0.08,0.303 0.116,0.444 0.167,0.612 0.702,1.004 1.229,1.004 1.468,0 4.343,-1.995 5.441,-3.044 -0.119,-0.11 -0.38,-0.388 -0.463,-0.447 -0.03,-0.023 -0.278,-0.225 -0.278,-0.344 0,-0.115 1.656,-1.031 1.724,-1.078 0.227,-0.15 0.451,-0.298 0.643,-0.446 0.117,-0.092 0.567,-0.425 0.728,-0.425 0.164,0 0.018,0.749 0.045,0.778 -0.048,0.263 -0.147,0.756 -0.147,0.815 0,0.059 -0.148,0.518 -0.148,0.578 0,0.33 -0.338,1.064 -0.452,1.299 -0.034,0.07 -0.072,0.119 -0.125,0.17 -0.299,-0.02 -0.855,-0.532 -0.947,-0.532 -0.137,0 -1.372,1.172 -1.862,1.63 -0.306,0.281 -0.663,0.528 -0.938,0.767 -0.602,0.53 -4.189,3.292 -5.437,3.292 -1.247,0 -4.834,-2.762 -5.437,-3.292 -0.275,-0.239 -0.632,-0.486 -0.938,-0.767 -0.491,-0.458 -1.727,-1.63 -1.862,-1.63 -0.092,0 -0.649,0.512 -0.948,0.532 -0.054,-0.051 -0.091,-0.1 -0.125,-0.17 -0.114,-0.235 -0.452,-0.969 -0.452,-1.299 0,-0.06 -0.148,-0.519 -0.148,-0.578 0,-0.059 -0.099,-0.552 -0.148,-0.815 0.028,-0.029 -0.118,-0.778 0.046,-0.778 0.161,0 0.61,0.333 0.727,0.425 0.191,0.148 0.417,0.296 0.642,0.446 0.067,0.046 1.726,0.963 1.726,1.078 0,0.119 -0.248,0.321 -0.279,0.344 -0.083,0.06 -0.343,0.337 -0.462,0.447 1.099,1.049 3.971,3.044 5.44,3.044 0.529,0 1.062,-0.392 1.229,-1.004 0.037,-0.141 0.118,-0.385 0.118,-0.444 0,-0.058 0.048,-0.214 0.055,-0.328 -0.007,-0.023 0.007,-0.037 0.056,-3.275 -0.006,-0.435 0.357,-0.623 0.667,-0.623 z"
     id="path145"
     inkscape:connector-curvature="0"
     style="fill:#ffffff" /><path
     ns3:knockout="Off"
     d="m 11.479,27.022 -0.002,7.457 c 0,0 0.781,0.612 3.71,-0.162 0,0 2.94,-1.103 5.205,0.245 v -7.668 c 0,0 -1.452,-1.286 -5.032,-0.35 0,0 -2.285,0.734 -3.309,0.491 -0.771,-0.182 -0.572,-0.013 -0.572,-0.013 z"
     id="path147"
     inkscape:connector-curvature="0"
     style="fill:#ffffff" /><path
     ns3:knockout="Off"
     d="m 20.326,36.62 c -0.08,0.029 -0.162,0.029 -0.241,0 -0.002,-0.029 -0.027,-0.029 -0.027,-0.089 0,-0.168 0.22,-0.83 0.262,-0.892 0.008,0.106 0.034,0.598 0.006,0.981 z"
     id="path149"
     inkscape:connector-curvature="0"
     style="fill:#ffffff" /><path
     ns3:knockout="Off"
     d="m 20.538,35.617 c 0.018,0.066 0.079,0.148 0.095,0.233 0.045,0.223 0.04,0.468 0.037,0.508 v 0.288 l -0.197,0.009 c -0.005,-0.129 -0.021,-0.149 -0.021,-0.159 0,-0.06 0,0 0,-0.06 V 35.88 c 0,-0.059 0.037,-0.03 10e-4,-0.036 0.024,-0.057 0.049,-0.149 0.085,-0.227 z"
     id="path151"
     inkscape:connector-curvature="0"
     style="fill:#ffffff" /><path
     ns3:knockout="Off"
     d="m 20.128,35.593 v 0.173 c 0.003,0.058 -0.145,0.499 -0.223,0.74 h -0.112 c -0.028,-0.025 -0.056,-0.07 -0.056,-0.126 0.001,-0.115 0.357,-0.766 0.391,-0.787 z"
     id="path153"
     inkscape:connector-curvature="0"
     style="fill:#ffffff" /><path
     ns3:knockout="Off"
     d="m 19.98,35.501 c -0.096,0.25 -0.218,0.506 -0.346,0.77 -0.031,0.003 -0.019,0.026 -0.081,0.026 -0.062,0 -0.111,-0.06 -0.111,-0.117 0,-0.098 0.498,-0.661 0.538,-0.679 z"
     id="path155"
     inkscape:connector-curvature="0"
     style="fill:#ffffff" /><path
     ns3:knockout="Off"
     d="m 19.809,35.312 -0.028,0.104 c -0.148,0.19 -0.292,0.382 -0.445,0.598 -0.124,-0.06 -0.115,-0.124 -0.115,-0.128 0,-0.115 0.466,-0.527 0.588,-0.574 z"
     id="path157"
     inkscape:connector-curvature="0"
     style="fill:#ffffff" /><path
     ns3:knockout="Off"
     d="m 29.647,27.022 0.004,7.457 c 0,0 -0.78,0.612 -3.711,-0.162 0,0 -2.896,-1.103 -5.198,0.245 V 26.88 c 0,0 1.445,-1.272 5.026,-0.335 0,0 2.285,0.734 3.309,0.491 0.77,-0.183 0.57,-0.014 0.57,-0.014 z"
     id="path159"
     inkscape:connector-curvature="0"
     style="fill:#ffffff" /><path
     ns3:knockout="Off"
     d="m 20.802,36.62 c 0.079,0.029 0.162,0.029 0.241,0 0.002,-0.029 0.027,-0.029 0.027,-0.089 0,-0.168 -0.22,-0.83 -0.261,-0.892 -0.01,0.106 -0.034,0.598 -0.007,0.981 z"
     id="path161"
     inkscape:connector-curvature="0"
     style="fill:#ffffff" /><path
     ns3:knockout="Off"
     d="m 21,35.593 v 0.173 c -0.003,0.058 0.144,0.499 0.223,0.74 h 0.11 c 0.029,-0.025 0.057,-0.07 0.057,-0.126 0,-0.115 -0.357,-0.766 -0.39,-0.787 z"
     id="path163"
     inkscape:connector-curvature="0"
     style="fill:#ffffff" /><path
     ns3:knockout="Off"
     d="m 21.15,35.501 c 0.095,0.25 0.216,0.506 0.345,0.77 0.031,0.003 0.019,0.026 0.08,0.026 0.062,0 0.112,-0.06 0.112,-0.117 0,-0.098 -0.498,-0.661 -0.537,-0.679 z"
     id="path165"
     inkscape:connector-curvature="0"
     style="fill:#ffffff" /><path
     ns3:knockout="Off"
     d="m 29.99,27.184 v 7.701 l -0.096,-0.123 -0.121,-0.176 v -7.604 z m 0.299,0.137 v 7.944 l -0.21,-0.285 v -7.786 z m 0.265,0.179 v 8.086 l -0.062,-0.064 -0.118,-0.149 v -7.921 z"
     id="path167"
     inkscape:connector-curvature="0"
     style="clip-rule:evenodd;fill:#ffffff;fill-rule:evenodd" /><path
     ns3:knockout="Off"
     d="m 21.319,35.312 0.029,0.104 c 0.147,0.19 0.29,0.382 0.446,0.598 0.123,-0.06 0.113,-0.124 0.113,-0.128 0,-0.115 -0.466,-0.527 -0.588,-0.574 z"
     id="path169"
     inkscape:connector-curvature="0"
     style="fill:#ffffff" /><path
     ns3:knockout="Off"
     d="m 30.794,27.732 h 0.298 v 8.463 l -8.987,0.003 -0.003,-0.022 c -0.31,0.507 -0.863,0.855 -1.501,0.879 h -0.037 c -0.012,0 -0.024,0 -0.037,0 -0.638,-0.024 -1.192,-0.373 -1.502,-0.879 l -0.003,0.022 h -8.987 v -8.467 h 0.298 v 8.183 h 8.728 l -0.023,0.167 c 0.296,0.535 0.867,0.902 1.526,0.916 0.659,-0.013 1.229,-0.381 1.524,-0.916 l -0.022,-0.167 h 8.728 z"
     id="path171"
     inkscape:connector-curvature="0"
     style="fill:#ffffff" /><ellipse
     style="fill:#ffffff"
     id="ellipse175"
     ry="0.17299999"
     rx="0.182"
     cy="7.4450002"
     cx="14.319"
     ns3:knockout="Off" /><path
     ns3:knockout="Off"
     d="m 23.27,10.029 c -0.16,0 -0.451,0.267 -0.441,0.422 h 0.13 c 0.102,10e-4 0.436,-0.244 0.436,-0.315 -0.001,-0.061 -0.06,-0.107 -0.125,-0.107 z"
     id="path177"
     inkscape:connector-curvature="0"
     style="fill:#ffffff" /><path
     ns3:knockout="Off"
     d="m 20.554,26.587 -0.716,-0.462 c 0.003,-0.159 -0.002,-0.442 10e-4,-0.621 -0.006,-0.435 0.357,-0.624 0.667,-0.624 h 0.188 c 0.309,0 0.673,0.189 0.667,0.624 0.002,0.179 0.005,0.462 0.008,0.621 z"
     id="path179"
     inkscape:connector-curvature="0"
     style="fill:#ffffff" /><polygon
     ns3:knockout="Off"
     points="16.525,23.767 15.425,23.567 15.417,22.181 16.525,22.167 "
     id="polygon181"
     style="fill:#ffffff" /><polygon
     ns3:knockout="Off"
     points="15.193,23.422 13.542,23.175 13.542,22.346 15.193,22.346 "
     id="polygon183"
     style="fill:#ffffff" /><polygon
     ns3:knockout="Off"
     points="13.088,23.443 13.424,23.237 13.423,22.37 13.088,22.609 "
     id="polygon185"
     style="fill:#ffffff" /><path
     ns3:knockout="Off"
     d="m 15.902,22.317 c 0.029,-0.01 0.05,-0.013 0.081,-0.013 0.152,0 0.276,0.118 0.276,0.262 0,0.146 -0.124,0.264 -0.276,0.264 -0.06,0 -0.158,-0.096 -0.203,-0.126 0.11,-0.035 0.239,-0.014 0.239,-0.173 0,-0.084 -0.051,-0.166 -0.117,-0.214 z"
     id="path187"
     inkscape:connector-curvature="0" /><path
     ns3:knockout="Off"
     d="m 15.902,22.978 c 0.029,-0.01 0.05,-0.015 0.081,-0.015 0.152,0 0.276,0.117 0.276,0.263 0,0.145 -0.124,0.262 -0.276,0.262 -0.06,0 -0.158,-0.093 -0.203,-0.125 0.11,-0.035 0.239,-0.013 0.239,-0.172 0,-0.084 -0.051,-0.166 -0.117,-0.213 z"
     id="path189"
     inkscape:connector-curvature="0" /><polygon
     ns3:knockout="Off"
     points="15.186,23.792 13.195,23.49 13.507,23.303 15.186,23.559 "
     id="polygon191"
     style="fill:#ffffff" /><polygon
     ns3:knockout="Off"
     points="16.522,24.13 15.431,23.912 15.432,23.713 16.525,23.916 "
     id="polygon193"
     style="fill:#ffffff" /><polygon
     ns3:knockout="Off"
     points="20.554,24.729 16.727,24.108 16.727,23.875 20.554,24.541 "
     id="polygon195"
     style="fill:#ffffff" /><polygon
     ns3:knockout="Off"
     points="24.582,23.767 25.682,23.567 25.674,22.167 24.582,22.167 "
     id="polygon197"
     style="fill:#ffffff" /><polygon
     ns3:knockout="Off"
     points="25.913,23.422 27.564,23.175 27.564,22.346 25.913,22.346 "
     id="polygon199"
     style="fill:#ffffff" /><path
     ns3:knockout="Off"
     d="m 24.968,22.317 c 0.028,-0.01 0.05,-0.013 0.083,-0.013 0.151,0 0.275,0.118 0.275,0.262 0,0.146 -0.124,0.264 -0.275,0.264 -0.061,0 -0.159,-0.096 -0.203,-0.126 0.109,-0.035 0.238,-0.014 0.238,-0.173 -10e-4,-0.084 -0.051,-0.166 -0.118,-0.214 z"
     id="path201"
     inkscape:connector-curvature="0" /><path
     ns3:knockout="Off"
     d="m 24.968,22.978 c 0.028,-0.01 0.05,-0.015 0.083,-0.015 0.151,0 0.275,0.117 0.275,0.263 0,0.145 -0.124,0.262 -0.275,0.262 -0.061,0 -0.159,-0.093 -0.203,-0.125 0.109,-0.035 0.238,-0.013 0.238,-0.172 -10e-4,-0.084 -0.051,-0.166 -0.118,-0.213 z"
     id="path203"
     inkscape:connector-curvature="0" /><polygon
     ns3:knockout="Off"
     points="25.921,23.792 27.422,23.539 27.564,23.293 25.921,23.559 "
     id="polygon205"
     style="fill:#ffffff" /><polygon
     ns3:knockout="Off"
     points="24.582,24.092 25.676,23.912 25.674,23.713 24.582,23.916 "
     id="polygon207"
     style="fill:#ffffff" /><polygon
     ns3:knockout="Off"
     points="16.741,22.36 20.554,22.36 24.367,22.36 24.367,23.669 20.554,24.326 16.741,23.669 "
     id="polygon209"
     style="fill:#ffffff" /><polygon
     ns3:knockout="Off"
     points="20.554,24.729 24.379,24.108 24.379,23.875 20.554,24.541 "
     id="polygon211"
     style="fill:#ffffff" /><path
     ns3:knockout="Off"
     d="m 22.163,28.808 c 0.425,0.011 0.756,0.222 0.756,0.566 0,0.166 -0.07,0.302 -0.273,0.44 0.131,0.186 0.396,0.353 0.396,0.586 0,0.515 -0.57,0.604 -0.916,0.604 -0.063,0 -0.237,0 -0.711,-0.024 -0.03,-0.025 -0.054,-0.025 -0.083,-0.057 0.052,-0.078 0.125,-0.17 0.162,-0.262 v -1.625 c -0.035,-0.068 -0.111,-0.139 -0.134,-0.199 0.085,-0.006 0.183,-0.029 0.803,-0.029 z"
     id="path217"
     inkscape:connector-curvature="0" /><path
     ns3:knockout="Off"
     d="m 24.319,28.949 c 0.627,0 0.879,0.564 0.879,1.004 0,0.537 -0.36,1.122 -0.954,1.122 -0.594,0 -0.954,-0.564 -0.954,-1.004 0,-0.471 0.31,-1.122 1.029,-1.122 z"
     id="path219"
     inkscape:connector-curvature="0" /><path
     ns3:knockout="Off"
     d="m 25.507,29.044 c 0.809,0 0.577,0.552 1.139,1.18 0.135,-0.167 0.112,-0.442 0.112,-0.638 0,-0.168 -0.005,-0.18 -0.172,-0.346 0.036,-0.008 0.036,-0.032 0.099,-0.032 0.063,0 0.337,0.048 0.495,0.105 -0.332,0.189 -0.239,0.566 -0.272,0.853 -0.06,0.517 -0.052,0.829 -0.108,1.144 -0.465,-0.499 -0.621,-1.038 -1,-1.512 -0.019,0.001 -0.034,0.043 -0.051,0.064 -0.03,0.28 -0.13,0.834 -0.13,0.894 0,0.133 0.111,0.274 0.197,0.406 -0.163,0.035 -0.396,0.06 -0.591,-0.022 0,0 -0.001,-0.034 0.007,-0.056 0.258,-0.108 0.214,-0.529 0.214,-0.718 0,-0.059 0.124,-0.851 0.124,-0.91 0,-0.074 -0.074,-0.209 -0.199,-0.329 0.059,-0.068 0.093,-0.083 0.136,-0.083 z"
     id="path221"
     inkscape:connector-curvature="0" /><path
     ns3:knockout="Off"
     d="m 27.708,29.305 c 0.204,0.023 0.578,0.023 0.657,0.049 0,0 0.029,-0.002 0.029,0.057 0,0.059 -0.075,0.105 -0.075,0.166 0,0.058 0.142,0.472 0.238,0.703 0.121,0.296 0.167,0.728 0.479,0.992 v 0.083 c -0.256,0.029 -0.507,0.029 -0.76,0.002 0,0 -0.031,0.001 -0.031,-0.055 0,-0.06 0.099,-0.143 0.099,-0.202 0,-0.142 -0.108,-0.378 -0.288,-0.378 H 27.64 c -0.06,0.028 -0.164,0.292 -0.164,0.391 0,0.057 0.048,0.111 0.098,0.192 -0.183,0.033 -0.385,0.008 -0.566,-0.023 0.049,-0.082 0.185,-0.131 0.237,-0.245 0.217,-0.456 0.53,-1.401 0.53,-1.459 0,-0.061 -0.1,-0.142 -0.1,-0.202 0,-0.06 0.004,-0.044 0.033,-0.071 z"
     id="path223"
     inkscape:connector-curvature="0" /><path
     ns3:knockout="Off"
     d="m 24.367,29.115 c 0.268,0 0.317,0.25 0.361,0.507 -0.025,0.285 -0.028,0.3 0,0.328 -0.009,0.059 -0.074,0.96 -0.508,0.96 -0.384,0 -0.434,-0.591 -0.434,-0.732 0,-0.204 0.089,-1.063 0.581,-1.063 z"
     id="path225"
     inkscape:connector-curvature="0"
     style="fill:#ffffff" /><path
     ns3:knockout="Off"
     d="m 27.882,29.965 c 0.053,0.023 0.239,0.384 0.239,0.46 0,0.06 -0.025,0.024 -0.028,0.082 h -0.312 c -0.028,-0.026 -0.057,-0.057 -0.057,-0.117 0.001,-0.058 0.077,-0.278 0.158,-0.425 z"
     id="path227"
     inkscape:connector-curvature="0"
     style="fill:#ffffff" /><path
     ns3:knockout="Off"
     d="m 22.127,29.941 c 0.281,0 0.42,0.193 0.42,0.416 0,0.217 -0.167,0.46 -0.408,0.46 -0.062,0 -0.131,-0.027 -0.21,-0.078 v -0.646 c -10e-4,-0.122 0.082,-0.152 0.198,-0.152 z"
     id="path229"
     inkscape:connector-curvature="0"
     style="fill:#ffffff" /><path
     ns3:knockout="Off"
     d="m 22.163,29.02 c 0.232,0 0.334,0.095 0.334,0.331 0,0.246 -0.115,0.402 -0.371,0.402 -0.063,0 -0.121,-0.028 -0.173,-0.079 0,-0.476 0.023,-0.547 0.026,-0.624 0.056,-0.028 0.122,-0.03 0.184,-0.03 z"
     id="path231"
     inkscape:connector-curvature="0"
     style="fill:#ffffff" /><path
     ns3:knockout="Off"
     d="m 18.567,28.807 h 0.5 c 0.028,0.052 0.028,0.463 0,0.541 -0.098,-10e-4 -0.161,-0.274 -0.309,-0.325 -0.047,-0.014 -0.107,-0.028 -0.169,-0.028 -0.13,0 -0.334,0.051 -0.334,0.224 0,0.472 1.041,0.453 1.041,1.205 0,0.357 -0.263,0.578 -0.644,0.578 -0.062,0 -0.437,-0.07 -0.637,-0.104 -0.088,-0.099 -0.081,-0.285 -0.081,-0.427 0,-0.06 0.025,-0.122 0.06,-0.2 0.155,0.275 0.376,0.543 0.695,0.543 0.142,0 0.26,-0.092 0.26,-0.248 0,-0.434 -1.04,-0.526 -1.04,-1.192 -10e-4,-0.41 0.323,-0.568 0.658,-0.567 z"
     id="path235"
     inkscape:connector-curvature="0" /><path
     ns3:knockout="Off"
     d="m 17.212,28.995 c 0.062,0 0.094,0.047 0.144,0.076 v 0.513 c -0.091,-0.099 -0.148,-0.208 -0.238,-0.279 -0.083,-0.069 -0.251,-0.098 -0.314,-0.098 -0.059,0 -0.358,0.041 -0.383,0.179 0.024,0.282 0.021,0.313 0,0.331 0.032,0.045 -0.016,0.293 0.124,0.293 0.167,0 0.213,-0.165 0.336,-0.259 0.034,0.054 0.034,0.101 0.06,0.154 -0.027,0.031 -0.025,0.046 -0.007,0.435 -0.113,-0.088 -0.194,-0.188 -0.315,-0.188 -0.108,0 -0.133,0.097 -0.148,0.155 0.025,0.303 0.021,0.336 0,0.356 0.025,0.088 0.012,0.211 0.055,0.3 0.043,0.088 0.143,0.062 0.193,0.062 0.291,0 0.57,-0.096 0.704,-0.471 0.036,0.027 0.039,0.059 0.039,0.118 0,0.06 -0.048,0.274 -0.086,0.421 -0.368,0.098 -1.105,0.194 -1.167,0.191 h -0.328 c -0.003,-0.057 0.081,-0.131 0.113,-0.18 0.041,-0.067 0.057,-0.184 0.057,-0.243 l -0.074,-1.323 c 0,-0.127 -0.149,-0.286 -0.197,-0.313 -0.002,-0.029 0.029,-0.063 0.056,-0.082 0.447,-0.053 1.315,-0.148 1.376,-0.148 z"
     id="path237"
     inkscape:connector-curvature="0" /><path
     ns3:knockout="Off"
     d="m 14.873,29.278 c 0.43,0 0.73,0.227 0.73,0.625 0,0.447 -0.236,0.674 -0.928,0.679 -0.083,0.03 -0.063,0.188 -0.063,0.208 0,0.059 0.033,0.323 0.104,0.48 0.026,0.056 0.114,0.088 0.193,0.143 -0.075,0.144 -0.325,0.088 -0.457,0.109 -0.322,0 -0.381,-0.002 -0.407,-0.03 -0.002,-0.051 0.064,-0.075 0.089,-0.128 0.049,-0.111 0.032,-0.291 0.032,-0.35 l -0.049,-1.296 c -0.036,-0.086 -0.043,-0.157 -0.149,-0.264 0.236,-0.148 0.632,-0.176 0.905,-0.176 z"
     id="path239"
     inkscape:connector-curvature="0" /><path
     ns3:knockout="Off"
     d="m 12.854,29.348 c 0.061,0 0.136,0.024 0.64,0.03 -0.061,0.093 0.004,0.233 0.004,0.312 0,0.061 -0.025,0.17 -0.058,0.271 -0.086,-0.073 -0.115,-0.208 -0.196,-0.286 -0.07,-0.068 -0.265,-0.115 -0.328,-0.115 -0.129,0 -0.286,0.039 -0.286,0.213 0,0.259 0.836,0.656 0.783,0.732 -0.029,0.041 0.085,0.074 0.124,0.122 0.033,0.044 0.085,0.124 0.091,0.191 0.017,0.022 0.069,0.017 0.069,0.076 0,0.059 -0.05,-0.035 -0.05,0.023 0,0.059 0.05,0.036 0.05,0.094 0,0.058 -0.05,0.035 -0.05,0.095 0,0.059 0.013,0.011 0.048,0.019 -0.074,0.106 -0.126,0.253 -0.251,0.345 -0.106,0.076 -0.305,0.12 -0.366,0.12 -0.062,0 -0.312,-0.089 -0.462,-0.136 -0.072,-0.021 -0.17,-0.006 -0.252,-0.01 -0.005,-0.056 -0.029,-0.102 -0.029,-0.457 0,-0.048 0.025,-0.123 0.062,-0.177 0.19,0.269 0.319,0.567 0.644,0.567 0.133,0 0.285,-0.136 0.285,-0.26 0,-0.442 -1.016,-0.46 -1.016,-1.168 -0.002,-0.282 0.178,-0.601 0.544,-0.601 z"
     id="path241"
     inkscape:connector-curvature="0" /><path
     ns3:knockout="Off"
     d="m 14.785,29.466 c 0.298,0 0.373,0.304 0.373,0.46 0,0.252 -0.112,0.484 -0.385,0.484 -0.057,0 -0.189,0.011 -0.186,-0.153 0.009,-0.354 -0.025,-0.472 -0.025,-0.532 0,-0.203 0.025,-0.259 0.223,-0.259 z"
     id="path243"
     inkscape:connector-curvature="0"
     style="fill:#ffffff" /><path
     ns3:knockout="Off"
     d="M 20.498,50.016 C 16.532,48.35 3.015,41.496 3.015,25.746 v -1.651 c 0.929,-0.285 3.263,-0.972 4.184,-1.223 0,0 1.412,-0.64 3.927,0.374 0,0 4.03,1.642 8.239,2.015 0.126,0.033 0.078,0.744 0.097,0.851 L 19.3,26.074 c -0.062,10e-4 -0.108,-0.042 -0.189,-0.052 -0.497,-0.063 -0.905,-0.103 -1.44,-0.103 -0.868,0 -0.913,0.099 -2.043,0.27 -0.182,0.026 -0.728,0.172 -0.922,0.23 -0.632,0.188 -1.317,0.362 -1.993,0.362 -0.062,0 -0.649,-0.077 -0.847,-0.106 -0.244,-0.039 -0.432,0.046 -0.494,0.046 -0.135,0 -0.877,0.64 -1.112,0.752 -0.111,0.052 -0.478,-0.078 -0.479,0.116 l 0.014,8.783 h 9.048 c 0.104,0 0.618,0.796 0.618,0.8 v 3.996 c 0,0.059 -0.123,0.414 -0.123,0.473 0,0.059 -0.227,0.475 -0.384,0.658 -0.242,0.282 -0.524,0.296 -0.752,0.296 -1.257,0 -3.97,-1.873 -4.84,-2.791 0.013,-0.016 0.642,-0.549 0.642,-0.729 0,-0.245 -0.633,-0.499 -0.71,-0.542 -0.099,-0.054 -0.217,-0.141 -0.347,-0.221 -0.289,-0.178 -0.629,-0.35 -0.938,-0.556 -0.21,-0.142 -1.102,-0.869 -1.453,-0.884 -0.238,-0.01 -0.362,0.335 -0.362,0.435 l 0.032,0.94 c 0,0.058 0.114,0.64 0.178,0.942 0.081,0.376 0.206,0.782 0.346,1.176 0.013,0.042 0.343,0.769 0.55,0.769 0,0 0.943,-0.564 1,-0.564 0.124,0 0.703,0.676 0.875,0.832 0.365,0.334 0.756,0.772 1.194,1.139 0.624,0.525 1.316,0.993 1.966,1.475 0.235,0.173 0.468,0.362 0.699,0.527 0.333,0.233 0.704,0.472 1.087,0.704 0.16,0.099 0.382,0.157 0.542,0.25 0.482,0.283 1.204,0.747 1.746,0.747 h 0.366 c 0.543,0 1.265,-0.464 1.747,-0.747 0.16,-0.093 0.382,-0.152 0.543,-0.25 0.383,-0.231 0.753,-0.47 1.086,-0.704 0.23,-0.165 0.465,-0.354 0.7,-0.527 0.65,-0.481 1.341,-0.949 1.966,-1.475 0.438,-0.366 0.829,-0.805 1.193,-1.139 0.172,-0.155 0.752,-0.832 0.875,-0.832 0.056,0 1,0.564 1,0.564 0.207,0 0.537,-0.728 0.55,-0.769 0.137,-0.394 0.265,-0.799 0.345,-1.176 0.064,-0.302 0.179,-0.884 0.179,-0.942 v -1.029 c 0,-0.097 -0.147,-0.392 -0.347,-0.392 -0.352,0 -1.227,0.789 -1.437,0.93 -0.309,0.206 -0.648,0.378 -0.938,0.556 -0.13,0.08 -0.248,0.167 -0.348,0.221 -0.077,0.042 -0.709,0.296 -0.709,0.542 0,0.179 0.629,0.712 0.642,0.729 -0.87,0.918 -3.583,2.791 -4.838,2.791 -0.229,0 -0.509,-0.014 -0.755,-0.296 -0.157,-0.183 -0.382,-0.599 -0.382,-0.658 0,-0.059 -0.123,-0.414 -0.123,-0.473 v -3.996 c 0,-0.003 0.526,-0.8 0.632,-0.8 h 9.047 V 27.59 c -10e-4,-0.194 -0.425,-0.141 -0.538,-0.193 -0.233,-0.113 -0.901,-0.733 -1.038,-0.733 -0.061,0 -0.429,0.038 -0.672,0.077 -0.198,0.029 -0.511,0.174 -0.796,0.091 -0.646,-0.184 -1.305,-0.039 -1.98,-0.399 -0.179,-0.095 -0.679,-0.23 -0.861,-0.257 -1.13,-0.171 -1.102,-0.282 -1.969,-0.282 -0.533,0 -0.946,-0.027 -1.442,0.037 -0.081,0.009 -0.151,0.036 -0.212,0.036 l -0.138,0.035 c 0.019,-0.107 -0.064,-0.709 0.062,-0.742 4.208,-0.374 8.237,-2.015 8.237,-2.015 2.517,-1.014 3.929,-0.374 3.929,-0.374 0.971,0.265 3.256,0.991 3.989,1.233 v 1.611 C 37.981,41.493 24.463,48.351 20.498,50.016 Z"
     id="path245"
     inkscape:connector-curvature="0"
     style="fill:#2b8cbe" /><path
     ns3:knockout="Off"
     d="m 10.754,35.34 -0.181,0.239 v -7.992 l 0.181,-0.117 z m 0.602,-8.261 v 7.461 l -0.217,0.288 V 27.22 Z m -0.306,0.199 v 7.669 l -0.211,0.28 v -7.812 z"
     id="path247"
     inkscape:connector-curvature="0"
     style="clip-rule:evenodd;fill:#ffffff;fill-rule:evenodd" /><path
     ns3:knockout="Off"
     d="m 11.051,35.45 c 0.037,0.015 0.081,0.031 0.131,0.048 0.129,0.04 0.301,0.083 0.519,0.122 0.557,0.097 1.409,0.155 2.591,-0.006 l 0.631,-0.125 1.239,-0.285 c 0,0 0.473,-0.141 1.104,-0.178 0.622,-0.037 1.402,0.028 2.03,0.434 l -0.037,0.038 c -0.613,-0.393 -1.375,-0.457 -1.991,-0.421 -0.385,0.022 -0.712,0.084 -0.905,0.128 0.201,-0.032 0.568,-0.081 0.993,-0.087 0.609,-0.008 1.342,0.072 1.863,0.421 l -0.037,0.038 c -0.507,-0.336 -1.221,-0.416 -1.826,-0.407 -0.637,0.009 -1.146,0.115 -1.146,0.115 l -1.28,0.254 -0.646,0.148 c -1.187,0.162 -2.038,0.098 -2.591,-0.007 -0.222,-0.042 -0.396,-0.091 -0.526,-0.134 -0.058,-0.018 -0.107,-0.034 -0.148,-0.049 z m 0.472,-0.692 c 0.022,0.009 0.047,0.019 0.076,0.029 0.829,0.298 1.863,0.214 2.691,0.012 l 1.818,-0.449 c 0,0 0.637,-0.156 1.436,-0.178 0.79,-0.021 1.746,0.088 2.401,0.617 l -0.036,0.037 C 19.268,34.311 18.331,34.201 17.545,34.223 16.751,34.245 16.12,34.4 16.12,34.4 l -1.818,0.449 c -0.839,0.205 -1.882,0.289 -2.721,-0.014 -0.034,-0.012 -0.063,-0.024 -0.088,-0.034 z m -0.25,0.366 c 0.143,0.051 0.395,0.129 0.735,0.186 0.553,0.092 1.342,0.126 2.281,-0.102 l 1.818,-0.449 c 0,0 0.572,-0.157 1.298,-0.182 0.709,-0.025 1.571,0.076 2.187,0.577 l -0.036,0.037 c -0.601,-0.486 -1.444,-0.587 -2.149,-0.562 -0.72,0.025 -1.287,0.181 -1.287,0.181 l -1.819,0.449 c -0.947,0.23 -1.743,0.196 -2.302,0.103 -0.354,-0.059 -0.613,-0.141 -0.756,-0.193 z"
     id="path249"
     inkscape:connector-curvature="0"
     style="fill:#ffffff" /><path
     ns3:knockout="Off"
     d="m 29.903,35.547 c -0.453,0.151 -1.453,0.368 -3.117,0.141 l -0.649,-0.149 -1.276,-0.253 c -0.003,0 -1.883,-0.392 -2.937,0.269 l -0.037,-0.038 c 0.52,-0.33 1.232,-0.406 1.829,-0.397 0.422,0.006 0.788,0.054 0.99,0.086 -0.496,-0.113 -1.86,-0.341 -2.858,0.27 l -0.037,-0.038 c 0.623,-0.385 1.385,-0.447 1.995,-0.411 0.63,0.037 1.103,0.178 1.103,0.178 l 1.236,0.284 0.634,0.126 c 1.182,0.161 2.034,0.103 2.591,0.006 0.217,-0.038 0.39,-0.083 0.519,-0.122 0.126,-0.042 0.208,-0.079 0.248,-0.099 l 0.039,0.049 c -0.047,0.019 -0.136,0.056 -0.273,0.098 z m -0.26,-0.775 c -0.197,0.092 -1.185,0.489 -2.875,0.077 L 24.95,34.4 c -0.003,-10e-4 -2.456,-0.601 -3.755,0.401 l -0.036,-0.038 c 0.654,-0.507 1.591,-0.613 2.368,-0.592 0.799,0.022 1.436,0.178 1.436,0.178 l 1.817,0.449 c 0.829,0.202 1.862,0.287 2.691,-0.012 0.062,-0.022 0.108,-0.042 0.139,-0.056 z m 0.281,0.357 c -0.203,0.085 -1.427,0.548 -3.156,0.128 L 24.95,34.808 c -0.003,-10e-4 -2.179,-0.595 -3.404,0.356 L 21.51,35.126 c 0.613,-0.479 1.458,-0.575 2.154,-0.551 0.726,0.025 1.299,0.182 1.299,0.182 l 1.817,0.449 c 0.94,0.229 1.729,0.194 2.282,0.102 0.437,-0.073 0.727,-0.18 0.829,-0.222 z"
     id="path251"
     inkscape:connector-curvature="0"
     style="fill:#ffffff" /></g></svg>
