<?xml version="1.0" encoding="UTF-8" standalone="no"?>
<!-- Generator: Adobe Illustrator 11 Build 196, SVG Export Plug-In . SVG Version: 6.0.0 Build 78)  -->

<svg
   xmlns:ns5="http://ns.adobe.com/SaveForWeb/1.0/"
   xmlns:ns4="http://ns.adobe.com/Variables/1.0/"
   xmlns:ns3="http://ns.adobe.com/AdobeIllustrator/10.0/"
   xmlns:xapGImg="http://ns.adobe.com/xap/1.0/g/img/"
   xmlns:xap="http://ns.adobe.com/xap/1.0/"
   xmlns:x="adobe:ns:meta/"
   xmlns:dc="http://purl.org/dc/elements/1.1/"
   xmlns:cc="http://creativecommons.org/ns#"
   xmlns:rdf="http://www.w3.org/1999/02/22-rdf-syntax-ns#"
   xmlns:svg="http://www.w3.org/2000/svg"
   xmlns="http://www.w3.org/2000/svg"
   xmlns:sodipodi="http://sodipodi.sourceforge.net/DTD/sodipodi-0.dtd"
   xmlns:inkscape="http://www.inkscape.org/namespaces/inkscape"
   ns3:viewOrigin="211.0615 494.9819"
   ns3:rulerOrigin="0 0"
   ns3:pageBounds="0 842 595 0"
   width="180.7726"
   height="183.3488"
   viewBox="0 0 180.77259 183.3488"
   overflow="visible"
   enable-background="new 0 0 170.772 196.378"
   xml:space="preserve"
   version="1.1"
   id="svg384"
   sodipodi:docname="UCT_Circular.svg"
   inkscape:version="0.92.3 (2405546, 2018-03-11)"
   style="overflow:visible"><defs
   id="defs388" /><sodipodi:namedview
   pagecolor="#ffffff"
   bordercolor="#666666"
   borderopacity="1"
   objecttolerance="10"
   gridtolerance="10"
   guidetolerance="10"
   inkscape:pageopacity="0"
   inkscape:pageshadow="2"
   inkscape:window-width="1920"
   inkscape:window-height="1017"
   id="namedview386"
   showgrid="false"
   inkscape:zoom="1.6995508"
   inkscape:cx="162.03094"
   inkscape:cy="-6.4661958"
   inkscape:window-x="1592"
   inkscape:window-y="-8"
   inkscape:window-maximized="1"
   inkscape:current-layer="svg384"
   fit-margin-top="5"
   fit-margin-left="5"
   fit-margin-bottom="5"
   fit-margin-right="5" />
	<metadata
   id="metadata2">

			</metadata>
		
	<g
   inkscape:groupmode="layer"
   id="layer1"
   inkscape:label="Layer 1"
   transform="translate(5,5.0008037)"><path
     style="clip-rule:evenodd;fill:#2b8cbe;fill-rule:evenodd"
     inkscape:connector-curvature="0"
     id="path7"
     d="m 19.653,40.147 c 1.867,1.512 3.887,1.902 5.464,-0.045 1.577,-1.947 0.775,-3.842 -1.092,-5.354 l -4.578,-3.707 -1.147,1.417 4.283,3.469 c 0.944,0.764 2.211,1.918 1.235,3.124 -0.976,1.205 -2.368,0.206 -3.312,-0.559 l -4.283,-3.468 -1.147,1.417 z"
     ns3:knockout="Off" /><path
     style="clip-rule:evenodd;fill:#2b8cbe;fill-rule:evenodd"
     inkscape:connector-curvature="0"
     id="path9"
     d="m 25.092,29.98 -1.207,1.25 4.613,4.455 1.207,-1.25 -2.283,-2.205 c -0.555,-0.535 -1.42,-1.388 -0.705,-2.129 0.681,-0.705 1.37,0.011 1.924,0.547 l 2.442,2.358 1.207,-1.25 -2.818,-2.722 C 28.401,28 27.2,27.495 26.062,28.673 c -0.431,0.446 -0.694,1.038 -0.53,1.696 l -0.017,0.018 z"
     ns3:knockout="Off" /><path
     style="clip-rule:evenodd;fill:#2b8cbe;fill-rule:evenodd"
     inkscape:connector-curvature="0"
     id="path11"
     d="m 30.927,24.464 -1.291,1.162 4.291,4.766 1.291,-1.162 z m -3.171,-2.223 c -0.424,0.382 -0.433,1.058 -0.04,1.495 0.402,0.446 1.066,0.499 1.491,0.116 0.424,-0.382 0.442,-1.048 0.04,-1.495 -0.394,-0.437 -1.067,-0.498 -1.491,-0.116 z"
     ns3:knockout="Off" /><polygon
     style="clip-rule:evenodd;fill:#2b8cbe;fill-rule:evenodd"
     id="polygon13"
     points="38.532,26.802 39.246,26.264 37.547,19.351 36.031,20.494 37.208,24.137 33.891,22.106 32.365,23.256 "
     ns3:knockout="Off" /><path
     style="clip-rule:evenodd;fill:#2b8cbe;fill-rule:evenodd"
     inkscape:connector-curvature="0"
     id="path15"
     d="m 45.501,18.451 -0.118,-0.188 c -1.024,-1.639 -2.605,-2.484 -4.299,-1.425 -1.673,1.045 -1.694,2.861 -0.663,4.511 1.031,1.65 2.757,2.235 4.356,1.235 1.084,-0.677 1.608,-1.852 1.288,-3.161 l -1.503,0.615 c 0.07,0.557 -0.041,1.058 -0.525,1.36 -0.768,0.48 -1.505,-0.138 -1.934,-0.824 z m -3.959,1.133 c -0.279,-0.611 -0.285,-1.347 0.304,-1.715 0.568,-0.355 1.244,-0.022 1.664,0.485 z"
     ns3:knockout="Off" /><path
     style="clip-rule:evenodd;fill:#2b8cbe;fill-rule:evenodd"
     inkscape:connector-curvature="0"
     id="path17"
     d="m 47.305,13.61 -1.561,0.761 2.811,5.764 1.561,-0.762 -1.265,-2.594 c -0.435,-0.892 -0.816,-1.956 0.266,-2.484 0.234,-0.114 0.492,-0.152 0.75,-0.104 l -0.555,-1.618 c -0.24,0.016 -0.492,0.065 -0.715,0.174 -0.58,0.283 -0.911,0.793 -0.977,1.45 l -0.022,0.011 z"
     ns3:knockout="Off" /><path
     style="clip-rule:evenodd;fill:#2b8cbe;fill-rule:evenodd"
     inkscape:connector-curvature="0"
     id="path19"
     d="m 54.715,10.791 c -0.631,-0.238 -1.469,-0.125 -2.067,0.117 -1.058,0.428 -1.466,1.536 -1.017,2.65 0.387,0.957 1.092,1.08 1.759,1.107 0.667,0.026 1.279,-0.081 1.489,0.44 0.157,0.387 -0.028,0.758 -0.385,0.902 -0.472,0.191 -1.018,0.031 -1.476,-0.207 l -0.33,1.302 c 0.749,0.43 1.632,0.496 2.391,0.189 1.185,-0.479 1.879,-1.675 1.346,-2.995 -0.416,-1.029 -1.157,-1.208 -1.852,-1.238 -0.683,-0.034 -1.318,0.082 -1.495,-0.354 -0.117,-0.291 0.059,-0.615 0.324,-0.722 0.322,-0.13 0.695,-0.069 1.018,0.068 z"
     ns3:knockout="Off" /><path
     style="clip-rule:evenodd;fill:#2b8cbe;fill-rule:evenodd"
     inkscape:connector-curvature="0"
     id="path21"
     d="m 58.427,8.962 -1.643,0.565 2.088,6.063 1.642,-0.565 z m -2.05,-3.286 c -0.54,0.186 -0.812,0.805 -0.621,1.36 0.195,0.568 0.787,0.875 1.327,0.69 C 57.623,7.54 57.899,6.934 57.704,6.365 57.513,5.81 56.917,5.49 56.377,5.676 Z"
     ns3:knockout="Off" /><polygon
     style="clip-rule:evenodd;fill:#2b8cbe;fill-rule:evenodd"
     id="polygon23"
     points="61.794,5.628 60.133,6.136 60.767,8.209 60.198,8.384 60.648,9.857 61.218,9.683 62.642,14.342 64.303,13.834 62.879,9.175 63.899,8.864 63.449,7.39 62.428,7.702 "
     ns3:knockout="Off" /><polygon
     style="clip-rule:evenodd;fill:#2b8cbe;fill-rule:evenodd"
     id="polygon25"
     points="68.042,11.956 66.991,16.678 68.86,16.281 71.148,5.741 69.255,6.143 68.483,10.032 66.306,6.77 64.376,7.18 "
     ns3:knockout="Off" /><path
     style="clip-rule:evenodd;fill:#2b8cbe;fill-rule:evenodd"
     inkscape:connector-curvature="0"
     id="path27"
     d="m 80.645,4.633 c -1.897,0.066 -3.149,1.534 -3.08,3.531 0.069,1.984 1.408,3.362 3.318,3.295 1.91,-0.066 3.149,-1.534 3.08,-3.518 -0.07,-1.997 -1.421,-3.374 -3.318,-3.308 z m 0.056,1.619 c 0.893,-0.031 1.47,0.863 1.501,1.751 0.03,0.861 -0.483,1.807 -1.376,1.838 -0.893,0.031 -1.471,-0.876 -1.5,-1.738 -0.032,-0.888 0.482,-1.82 1.375,-1.851 z"
     ns3:knockout="Off" /><path
     style="clip-rule:evenodd;fill:#2b8cbe;fill-rule:evenodd"
     inkscape:connector-curvature="0"
     id="path29"
     d="M 87.661,6.338 89.05,6.387 89.104,4.846 87.715,4.798 87.772,3.179 c 0.019,-0.522 -0.032,-1.582 0.737,-1.555 0.26,0.009 0.48,0.121 0.699,0.247 L 89.265,0.239 C 89.01,0.087 88.727,0.011 88.442,0.001 86.768,-0.057 86.1,1.292 86.045,2.858 l -0.065,1.879 -0.583,-0.021 -0.054,1.54 0.583,0.021 -0.17,4.869 1.736,0.061 z"
     ns3:knockout="Off" /><path
     style="clip-rule:evenodd;fill:#2b8cbe;fill-rule:evenodd"
     inkscape:connector-curvature="0"
     id="path31"
     d="m 101.993,3.281 c -0.569,-0.458 -1.248,-0.774 -1.972,-0.887 -2.709,-0.419 -4.938,1.733 -5.366,4.495 -0.416,2.684 1.144,5.344 3.743,5.747 0.748,0.116 1.46,-0.025 2.187,-0.256 l 0.35,-2.258 c -0.597,0.528 -1.435,0.835 -2.208,0.715 -1.68,-0.26 -2.456,-2.059 -2.202,-3.698 0.26,-1.678 1.513,-3.202 3.241,-2.934 0.772,0.12 1.473,0.625 1.875,1.348 z"
     ns3:knockout="Off" /><path
     style="clip-rule:evenodd;fill:#2b8cbe;fill-rule:evenodd"
     inkscape:connector-curvature="0"
     id="path33"
     d="m 109.978,8.77 -1.639,-0.495 -0.174,0.575 c -0.253,-0.622 -0.788,-1.083 -1.393,-1.266 -1.674,-0.506 -3.147,0.81 -3.638,2.435 -0.502,1.663 -0.022,3.595 1.688,4.111 0.606,0.183 1.307,0.094 1.81,-0.286 l 0.024,0.007 -0.17,0.562 1.639,0.495 z m -4.309,3.924 c -0.855,-0.258 -1.106,-1.316 -0.856,-2.142 0.249,-0.825 1.04,-1.555 1.895,-1.296 0.855,0.258 1.122,1.307 0.873,2.132 -0.25,0.826 -1.056,1.564 -1.912,1.306 z"
     ns3:knockout="Off" /><path
     style="clip-rule:evenodd;fill:#2b8cbe;fill-rule:evenodd"
     inkscape:connector-curvature="0"
     id="path35"
     d="m 114.135,10.2 -1.613,-0.645 -3.652,9.13 1.612,0.645 1.494,-3.735 0.024,0.01 c 0.128,0.614 0.632,1.125 1.208,1.355 1.67,0.668 3.246,-0.53 3.896,-2.155 0.625,-1.564 0.277,-3.532 -1.324,-4.172 -0.599,-0.24 -1.31,-0.2 -1.862,0.113 z m -0.683,5.114 c -0.83,-0.332 -0.987,-1.407 -0.667,-2.208 0.32,-0.8 1.171,-1.458 2,-1.127 0.83,0.332 0.992,1.396 0.672,2.196 -0.319,0.801 -1.176,1.471 -2.005,1.139 z"
     ns3:knockout="Off" /><path
     style="clip-rule:evenodd;fill:#2b8cbe;fill-rule:evenodd"
     inkscape:connector-curvature="0"
     id="path37"
     d="m 123.569,18.519 0.104,-0.196 c 0.902,-1.71 0.836,-3.501 -0.93,-4.433 -1.745,-0.92 -3.325,-0.025 -4.232,1.696 -0.907,1.721 -0.545,3.507 1.123,4.387 1.131,0.596 2.41,0.458 3.379,-0.478 l -1.288,-0.989 c -0.446,0.34 -0.935,0.496 -1.44,0.23 -0.801,-0.422 -0.638,-1.37 -0.26,-2.086 z m -2.971,-2.851 c 0.387,-0.549 1.02,-0.924 1.635,-0.6 0.592,0.312 0.645,1.064 0.417,1.682 z"
     ns3:knockout="Off" /><polygon
     style="clip-rule:evenodd;fill:#2b8cbe;fill-rule:evenodd"
     id="polygon39"
     points="134.466,19.357 135.997,20.457 136.973,19.1 132.429,15.835 131.453,17.192 132.985,18.292 128.214,24.931 129.695,25.996 "
     ns3:knockout="Off" /><path
     style="clip-rule:evenodd;fill:#2b8cbe;fill-rule:evenodd"
     inkscape:connector-curvature="0"
     id="path41"
     d="m 138.065,24.172 c -1.454,-1.22 -3.367,-0.967 -4.651,0.564 -1.276,1.521 -1.203,3.44 0.261,4.669 1.464,1.228 3.367,0.967 4.644,-0.554 1.283,-1.53 1.201,-3.458 -0.254,-4.679 z m -1.041,1.241 c 0.684,0.574 0.515,1.625 -0.056,2.306 -0.554,0.661 -1.568,1.02 -2.252,0.446 -0.685,-0.574 -0.507,-1.636 0.047,-2.296 0.571,-0.681 1.577,-1.03 2.261,-0.456 z"
     ns3:knockout="Off" /><polygon
     style="clip-rule:evenodd;fill:#2b8cbe;fill-rule:evenodd"
     id="polygon43"
     points="139.396,34.688 143.242,33.086 141.274,36.702 141.875,37.347 148.589,34.953 147.303,33.574 143.682,35.187 145.552,31.39 144.985,30.782 141.114,32.356 142.954,28.91 141.659,27.521 138.786,34.035 "
     ns3:knockout="Off" /><path
     style="clip-rule:evenodd;fill:#2b8cbe;fill-rule:evenodd"
     inkscape:connector-curvature="0"
     id="path45"
     d="m 150.824,38.114 -1.021,-1.405 -5.188,3.77 1.021,1.405 2.568,-1.866 c 0.623,-0.453 1.613,-1.157 2.219,-0.324 0.576,0.793 -0.249,1.346 -0.873,1.799 l -2.747,1.996 1.021,1.405 3.17,-2.303 c 1.205,-0.875 1.91,-1.971 0.947,-3.295 -0.365,-0.502 -0.901,-0.863 -1.578,-0.816 l -0.015,-0.02 z"
     ns3:knockout="Off" /><path
     style="clip-rule:evenodd;fill:#2b8cbe;fill-rule:evenodd"
     inkscape:connector-curvature="0"
     id="path47"
     d="m 152.435,49.513 c 0.396,0.713 1.331,0.974 2.097,0.549 0.766,-0.425 1.055,-1.346 0.652,-2.073 -0.403,-0.728 -1.338,-0.97 -2.1,-0.539 -0.765,0.425 -1.044,1.349 -0.649,2.063 z"
     ns3:knockout="Off" /><path
     style="clip-rule:evenodd;fill:#2b8cbe;fill-rule:evenodd"
     inkscape:connector-curvature="0"
     id="path49"
     d="m 160.966,56.121 -0.651,-1.611 -5.945,2.402 0.65,1.61 z m 3.175,-2.219 c -0.214,-0.529 -0.846,-0.769 -1.391,-0.549 -0.557,0.225 -0.833,0.832 -0.62,1.361 0.213,0.529 0.834,0.774 1.391,0.549 0.545,-0.221 0.833,-0.832 0.62,-1.361 z"
     ns3:knockout="Off" /><polygon
     style="clip-rule:evenodd;fill:#2b8cbe;fill-rule:evenodd"
     id="polygon51"
     points="165.722,58.895 165.066,56.876 160.887,61.288 156.598,62.681 157.161,64.416 161.45,63.022 167.439,64.181 166.78,62.151 162.961,61.514 "
     ns3:knockout="Off" /><path
     style="clip-rule:evenodd;fill:#2b8cbe;fill-rule:evenodd"
     inkscape:connector-curvature="0"
     id="path53"
     d="m 164.521,66.656 -3.692,0.785 c -1.827,0.388 -2.594,1.49 -2.218,3.262 0.377,1.772 1.526,2.466 3.353,2.078 l 3.692,-0.785 -0.361,-1.699 -3.398,0.722 c -0.716,0.152 -1.595,0.225 -1.778,-0.637 -0.183,-0.862 0.649,-1.153 1.365,-1.305 l 3.398,-0.722 z"
     ns3:knockout="Off" /><path
     style="clip-rule:evenodd;fill:#2b8cbe;fill-rule:evenodd"
     inkscape:connector-curvature="0"
     id="path55"
     d="m 166.401,76.543 -0.212,-1.725 -6.365,0.782 0.211,1.724 3.15,-0.387 c 0.765,-0.094 1.972,-0.23 2.097,0.792 0.12,0.973 -0.87,1.057 -1.635,1.151 l -3.37,0.414 0.211,1.724 3.889,-0.478 c 1.478,-0.181 2.626,-0.797 2.426,-2.423 -0.075,-0.616 -0.37,-1.192 -0.984,-1.479 l -0.003,-0.025 z"
     ns3:knockout="Off" /><path
     style="clip-rule:evenodd;fill:#2b8cbe;fill-rule:evenodd"
     inkscape:connector-curvature="0"
     id="path57"
     d="m 167.03,84.954 -0.061,-1.736 -6.409,0.224 0.061,1.736 z m 3.742,-1 c -0.02,-0.571 -0.532,-1.012 -1.12,-0.991 -0.6,0.021 -1.067,0.497 -1.047,1.067 0.02,0.57 0.519,1.012 1.12,0.991 0.587,-0.021 1.067,-0.497 1.047,-1.067 z"
     ns3:knockout="Off" /><polygon
     style="clip-rule:evenodd;fill:#2b8cbe;fill-rule:evenodd"
     id="polygon59"
     points="160.503,89.483 160.472,90.376 166.913,93.407 166.979,91.51 163.408,90.131 167.073,88.832 167.139,86.922 "
     ns3:knockout="Off" /><path
     style="clip-rule:evenodd;fill:#2b8cbe;fill-rule:evenodd"
     inkscape:connector-curvature="0"
     id="path61"
     d="m 162.494,100.49 0.22,0.031 c 1.914,0.269 3.577,-0.399 3.855,-2.377 0.274,-1.954 -1.102,-3.137 -3.029,-3.408 -1.927,-0.271 -3.484,0.676 -3.747,2.543 -0.178,1.266 0.385,2.422 1.594,3.018 l 0.495,-1.546 c -0.472,-0.305 -0.784,-0.712 -0.705,-1.277 0.126,-0.896 1.073,-1.064 1.875,-0.952 z m 1.676,-3.761 c 0.647,0.179 1.215,0.646 1.118,1.335 -0.093,0.663 -0.782,0.967 -1.441,0.962 z"
     ns3:knockout="Off" /><path
     style="clip-rule:evenodd;fill:#2b8cbe;fill-rule:evenodd"
     inkscape:connector-curvature="0"
     id="path63"
     d="m 164.292,106.935 c 0.55,-0.39 0.925,-1.147 1.059,-1.779 0.237,-1.117 -0.453,-2.075 -1.628,-2.325 -1.009,-0.214 -1.506,0.302 -1.901,0.839 -0.395,0.538 -0.649,1.105 -1.198,0.988 -0.409,-0.087 -0.613,-0.447 -0.533,-0.824 0.106,-0.498 0.543,-0.861 0.997,-1.107 l -0.896,-1.002 c -0.775,0.381 -1.323,1.076 -1.494,1.877 -0.266,1.25 0.337,2.495 1.73,2.791 1.086,0.231 1.649,-0.284 2.062,-0.843 0.41,-0.547 0.669,-1.139 1.129,-1.041 0.307,0.065 0.477,0.393 0.417,0.672 -0.072,0.34 -0.331,0.615 -0.625,0.806 z"
     ns3:knockout="Off" /><path
     style="clip-rule:evenodd;fill:#2b8cbe;fill-rule:evenodd"
     inkscape:connector-curvature="0"
     id="path65"
     d="m 163.507,111.263 0.502,-1.663 -6.139,-1.854 -0.502,1.663 z m 3.864,0.259 c 0.165,-0.546 -0.178,-1.129 -0.74,-1.299 -0.575,-0.174 -1.17,0.126 -1.335,0.672 -0.165,0.546 0.165,1.125 0.74,1.299 0.562,0.171 1.17,-0.126 1.335,-0.672 z"
     ns3:knockout="Off" /><polygon
     style="clip-rule:evenodd;fill:#2b8cbe;fill-rule:evenodd"
     id="polygon67"
     points="164.194,116.189 164.754,114.545 162.702,113.846 162.894,113.283 161.435,112.786 161.243,113.35 156.631,111.78 156.072,113.424 160.683,114.994 160.339,116.004 161.798,116.5 162.142,115.491 "
     ns3:knockout="Off" /><path
     style="clip-rule:evenodd;fill:#2b8cbe;fill-rule:evenodd"
     inkscape:connector-curvature="0"
     id="path69"
     d="m 165.283,120.269 -10.133,-4.469 -0.701,1.589 2.904,1.28 c 0.705,0.311 1.812,0.812 1.396,1.755 -0.396,0.896 -1.289,0.462 -1.994,0.151 l -3.106,-1.37 -0.701,1.589 3.585,1.581 c 1.362,0.601 2.664,0.66 3.324,-0.839 0.25,-0.567 0.293,-1.213 -0.04,-1.753 l 0.01,-0.023 4.755,2.098 z"
     ns3:knockout="Off" /><path
     style="clip-rule:evenodd;fill:#2b8cbe;fill-rule:evenodd"
     inkscape:connector-curvature="0"
     id="path71"
     d="m 156.604,127.546 0.836,-1.522 -5.619,-3.089 -0.837,1.522 z m 3.725,1.058 c 0.275,-0.5 0.062,-1.141 -0.454,-1.424 -0.526,-0.29 -1.171,-0.12 -1.446,0.38 -0.275,0.5 -0.072,1.135 0.454,1.424 0.515,0.283 1.171,0.12 1.446,-0.38 z"
     ns3:knockout="Off" /><polygon
     style="clip-rule:evenodd;fill:#2b8cbe;fill-rule:evenodd"
     id="polygon73"
     points="147.402,131.916 144.979,127.729 143.873,129.286 149.322,138.592 150.443,137.015 148.379,133.63 152.189,134.558 153.332,132.95 "
     ns3:knockout="Off" /><path
     style="clip-rule:evenodd;fill:#2b8cbe;fill-rule:evenodd"
     inkscape:connector-curvature="0"
     id="path75"
     d="m 143.918,144.629 1.155,-1.264 -0.444,-0.405 c 0.67,0.041 1.317,-0.242 1.744,-0.709 1.179,-1.292 0.63,-3.188 -0.624,-4.333 -1.283,-1.171 -3.232,-1.573 -4.437,-0.254 -0.427,0.467 -0.649,1.137 -0.524,1.755 l -0.017,0.019 -0.434,-0.396 -1.154,1.264 z m -1.676,-5.58 c 0.602,-0.66 1.665,-0.429 2.301,0.152 0.636,0.581 0.953,1.609 0.351,2.269 -0.603,0.66 -1.664,0.446 -2.3,-0.134 -0.637,-0.582 -0.955,-1.628 -0.352,-2.287 z"
     ns3:knockout="Off" /><path
     style="clip-rule:evenodd;fill:#2b8cbe;fill-rule:evenodd"
     inkscape:connector-curvature="0"
     id="path77"
     d="m 138.715,148.982 c 0.674,0.001 1.419,-0.399 1.894,-0.836 0.84,-0.773 0.833,-1.954 0.019,-2.838 -0.698,-0.759 -1.402,-0.627 -2.035,-0.417 -0.633,0.21 -1.169,0.525 -1.549,0.112 -0.283,-0.308 -0.24,-0.72 0.043,-0.979 0.375,-0.345 0.942,-0.387 1.454,-0.326 l -0.149,-1.335 c -0.853,-0.139 -1.702,0.11 -2.305,0.664 -0.941,0.865 -1.17,2.229 -0.207,3.276 0.751,0.817 1.508,0.724 2.168,0.507 0.651,-0.208 1.206,-0.541 1.523,-0.194 0.212,0.231 0.161,0.597 -0.049,0.79 -0.255,0.235 -0.625,0.309 -0.976,0.294 z"
     ns3:knockout="Off" /><path
     style="clip-rule:evenodd;fill:#2b8cbe;fill-rule:evenodd"
     inkscape:connector-curvature="0"
     id="path79"
     d="m 130.399,151.683 0.135,0.176 c 1.179,1.531 2.835,2.217 4.417,0.999 1.563,-1.203 1.407,-3.012 0.22,-4.553 -1.187,-1.541 -2.961,-1.955 -4.456,-0.805 -1.013,0.78 -1.419,2 -0.973,3.271 l 1.435,-0.759 c -0.124,-0.547 -0.062,-1.056 0.39,-1.405 0.717,-0.552 1.511,-0.01 2.005,0.632 z m 3.828,-1.514 c 0.337,0.581 0.416,1.312 -0.135,1.736 -0.531,0.409 -1.235,0.144 -1.703,-0.32 z"
     ns3:knockout="Off" /><polygon
     style="clip-rule:evenodd;fill:#2b8cbe;fill-rule:evenodd"
     id="polygon81"
     points="132.047,159.036 126.903,150.64 125.348,151.593 127.661,155.368 127.64,155.381 122.778,153.168 120.778,154.393 126.743,156.957 126.092,162.685 128.007,161.512 128.302,156.461 128.323,156.448 130.493,159.988 "
     ns3:knockout="Off" /><path
     style="clip-rule:evenodd;fill:#2b8cbe;fill-rule:evenodd"
     inkscape:connector-curvature="0"
     id="path83"
     d="m 116.876,163.314 1.545,-0.737 -0.258,-0.542 c 0.605,0.29 1.312,0.271 1.882,-0.001 1.579,-0.753 1.783,-2.717 1.052,-4.249 -0.748,-1.567 -2.402,-2.674 -4.015,-1.905 -0.571,0.272 -1.03,0.81 -1.146,1.43 l -0.023,0.011 -0.253,-0.531 -1.545,0.737 z m 0.545,-5.801 c 0.806,-0.385 1.704,0.229 2.075,1.007 0.371,0.778 0.277,1.85 -0.529,2.234 -0.806,0.384 -1.709,-0.212 -2.08,-0.99 -0.371,-0.778 -0.272,-1.867 0.534,-2.251 z"
     ns3:knockout="Off" /><path
     style="clip-rule:evenodd;fill:#2b8cbe;fill-rule:evenodd"
     inkscape:connector-curvature="0"
     id="path85"
     d="m 112.233,165.068 1.647,-0.551 -3.12,-9.325 -1.647,0.551 1.276,3.814 -0.024,0.008 c -0.495,-0.385 -1.209,-0.449 -1.798,-0.252 -1.706,0.571 -2.132,2.503 -1.577,4.163 0.535,1.597 2.073,2.873 3.708,2.326 0.611,-0.205 1.128,-0.694 1.347,-1.291 z m -2.787,-4.341 c 0.847,-0.284 1.663,0.435 1.937,1.252 0.274,0.817 0.05,1.87 -0.797,2.153 -0.847,0.283 -1.659,-0.423 -1.932,-1.24 -0.275,-0.818 -0.055,-1.882 0.792,-2.165 z"
     ns3:knockout="Off" /><path
     style="clip-rule:evenodd;fill:#2b8cbe;fill-rule:evenodd"
     inkscape:connector-curvature="0"
     id="path87"
     d="m 99.427,168.51 1.673,-0.362 -0.127,-0.587 c 0.523,0.421 1.214,0.566 1.833,0.432 1.71,-0.37 2.36,-2.233 2.002,-3.893 -0.367,-1.698 -1.723,-3.155 -3.469,-2.777 -0.619,0.134 -1.188,0.551 -1.445,1.127 l -0.024,0.005 -0.124,-0.574 -1.673,0.362 z m 1.865,-5.521 c 0.873,-0.188 1.605,0.615 1.788,1.458 0.182,0.842 -0.156,1.864 -1.029,2.053 -0.873,0.189 -1.615,-0.6 -1.797,-1.442 -0.182,-0.842 0.165,-1.88 1.038,-2.069 z"
     ns3:knockout="Off" /><path
     style="clip-rule:evenodd;fill:#2b8cbe;fill-rule:evenodd"
     inkscape:connector-curvature="0"
     id="path89"
     d="m 91.297,164.701 c -0.812,0.071 -1.431,0.82 -1.354,1.691 0.076,0.872 0.8,1.512 1.628,1.439 0.829,-0.073 1.43,-0.828 1.346,-1.699 -0.077,-0.872 -0.808,-1.503 -1.62,-1.431 z"
     ns3:knockout="Off" /><path
     style="clip-rule:evenodd;fill:#2b8cbe;fill-rule:evenodd"
     inkscape:connector-curvature="0"
     id="path91"
     d="m 85.386,167.461 c 0.08,-2.401 -0.827,-4.248 -3.332,-4.331 -2.505,-0.083 -3.532,1.699 -3.612,4.101 l -0.195,5.887 1.823,0.06 0.183,-5.508 c 0.041,-1.214 0.196,-2.921 1.746,-2.869 1.55,0.051 1.593,1.765 1.552,2.978 l -0.183,5.509 1.823,0.06 z"
     ns3:knockout="Off" /><path
     style="clip-rule:evenodd;fill:#2b8cbe;fill-rule:evenodd"
     inkscape:connector-curvature="0"
     id="path93"
     d="m 73.705,169.13 1.72,0.242 0.892,-6.35 -1.72,-0.242 -0.442,3.143 c -0.107,0.763 -0.289,1.964 -1.308,1.821 -0.971,-0.136 -0.796,-1.114 -0.688,-1.877 l 0.472,-3.363 -1.72,-0.242 -0.545,3.88 c -0.207,1.475 0.091,2.743 1.712,2.971 0.614,0.086 1.248,-0.049 1.684,-0.568 l 0.024,0.003 z"
     ns3:knockout="Off" /><path
     style="clip-rule:evenodd;fill:#2b8cbe;fill-rule:evenodd"
     inkscape:connector-curvature="0"
     id="path95"
     d="m 65.801,167.718 1.699,0.361 1.333,-6.272 -1.699,-0.361 z m 0.065,3.873 c 0.559,0.119 1.11,-0.271 1.233,-0.846 0.125,-0.588 -0.224,-1.156 -0.782,-1.274 -0.558,-0.119 -1.107,0.258 -1.232,0.846 -0.124,0.574 0.223,1.155 0.781,1.274 z"
     ns3:knockout="Off" /><polygon
     style="clip-rule:evenodd;fill:#2b8cbe;fill-rule:evenodd"
     id="polygon97"
     points="63.209,160.24 62.354,159.979 57.76,165.417 59.575,165.972 61.832,162.878 62.138,166.755 63.966,167.314 "
     ns3:knockout="Off" /><path
     style="clip-rule:evenodd;fill:#2b8cbe;fill-rule:evenodd"
     inkscape:connector-curvature="0"
     id="path99"
     d="m 52.334,159.571 -0.083,0.206 c -0.724,1.792 -0.478,3.568 1.374,4.316 1.829,0.739 3.311,-0.311 4.04,-2.115 0.729,-1.804 0.188,-3.544 -1.561,-4.251 -1.185,-0.479 -2.443,-0.212 -3.314,0.816 l 1.381,0.854 c 0.41,-0.384 0.88,-0.588 1.41,-0.375 0.839,0.339 0.773,1.298 0.47,2.049 z m 3.245,2.536 c -0.33,0.585 -0.921,1.022 -1.565,0.762 -0.622,-0.251 -0.75,-0.993 -0.585,-1.631 z"
     ns3:knockout="Off" /><path
     style="clip-rule:evenodd;fill:#2b8cbe;fill-rule:evenodd"
     inkscape:connector-curvature="0"
     id="path101"
     d="m 47.61,161.158 1.561,0.761 2.811,-5.763 -1.561,-0.762 -1.265,2.594 c -0.435,0.892 -1.039,1.847 -2.121,1.32 -0.234,-0.114 -0.423,-0.293 -0.544,-0.527 l -0.934,1.434 c 0.161,0.18 0.355,0.348 0.578,0.457 0.58,0.283 1.186,0.229 1.744,-0.123 l 0.022,0.011 z"
     ns3:knockout="Off" /><path
     style="clip-rule:evenodd;fill:#2b8cbe;fill-rule:evenodd"
     inkscape:connector-curvature="0"
     id="path103"
     d="m 40.805,156.779 c 0.19,0.647 0.784,1.249 1.337,1.581 0.979,0.588 2.11,0.247 2.729,-0.783 0.532,-0.885 0.206,-1.522 -0.174,-2.071 -0.38,-0.549 -0.834,-0.973 -0.544,-1.455 0.215,-0.358 0.623,-0.434 0.952,-0.235 0.436,0.262 0.637,0.794 0.723,1.303 l 1.239,-0.521 c -0.107,-0.856 -0.586,-1.602 -1.288,-2.023 -1.096,-0.658 -2.469,-0.493 -3.202,0.728 -0.572,0.952 -0.269,1.651 0.126,2.224 0.384,0.566 0.859,1.004 0.617,1.407 -0.162,0.269 -0.527,0.323 -0.771,0.176 -0.298,-0.179 -0.474,-0.513 -0.559,-0.854 z"
     ns3:knockout="Off" /><path
     style="clip-rule:evenodd;fill:#2b8cbe;fill-rule:evenodd"
     inkscape:connector-curvature="0"
     id="path105"
     d="m 37.009,154.784 1.423,0.997 3.678,-5.253 -1.423,-0.996 z m -1.454,3.59 c 0.467,0.328 1.128,0.184 1.465,-0.297 0.344,-0.492 0.246,-1.151 -0.222,-1.479 -0.468,-0.327 -1.121,-0.195 -1.466,0.297 -0.336,0.482 -0.245,1.151 0.223,1.479 z"
     ns3:knockout="Off" /><polygon
     style="clip-rule:evenodd;fill:#2b8cbe;fill-rule:evenodd"
     id="polygon107"
     points="32.317,154.04 33.704,155.085 35.009,153.354 35.484,153.712 36.412,152.481 35.936,152.123 38.868,148.232 37.481,147.187 34.549,151.078 33.697,150.436 32.77,151.667 33.622,152.309 "
     ns3:knockout="Off" /><path
     style="clip-rule:evenodd;fill:#2b8cbe;fill-rule:evenodd"
     inkscape:connector-curvature="0"
     id="path109"
     d="m 29.725,144.285 -0.148,0.165 c -1.293,1.437 -1.67,3.189 -0.185,4.525 1.466,1.32 3.217,0.84 4.519,-0.605 1.302,-1.446 1.388,-3.267 -0.013,-4.529 -0.95,-0.855 -2.223,-1.035 -3.393,-0.366 l 1.006,1.275 c 0.516,-0.221 1.028,-0.252 1.452,0.13 0.673,0.606 0.283,1.485 -0.259,2.087 z m 2.181,3.492 c -0.51,0.437 -1.216,0.646 -1.732,0.18 -0.498,-0.448 -0.365,-1.189 0.007,-1.733 z"
     ns3:knockout="Off" /><path
     style="clip-rule:evenodd;fill:#2b8cbe;fill-rule:evenodd"
     inkscape:connector-curvature="0"
     id="path111"
     d="m 24.664,144.12 1.207,1.25 4.613,-4.455 -1.207,-1.25 z m -2.112,3.247 c 0.396,0.41 1.072,0.396 1.495,-0.013 0.433,-0.417 0.461,-1.083 0.064,-1.494 -0.396,-0.411 -1.063,-0.405 -1.495,0.012 -0.423,0.409 -0.461,1.084 -0.064,1.495 z"
     ns3:knockout="Off" /><polygon
     style="clip-rule:evenodd;fill:#2b8cbe;fill-rule:evenodd"
     id="polygon113"
     points="20.215,142.48 21.377,143.771 22.989,142.321 23.387,142.763 24.532,141.732 24.134,141.29 27.754,138.03 26.592,136.739 22.972,139.999 22.258,139.206 21.112,140.237 21.826,141.03 "
     ns3:knockout="Off" /><polygon
     style="clip-rule:evenodd;fill:#2b8cbe;fill-rule:evenodd"
     id="polygon115"
     points="21.51,129.777 21.023,129.028 14.008,130.24 15.042,131.832 18.759,130.913 16.502,134.08 17.542,135.682 "
     ns3:knockout="Off" /><path
     style="clip-rule:evenodd;fill:#2b8cbe;fill-rule:evenodd"
     inkscape:connector-curvature="0"
     id="path117"
     d="m 10.326,123.629 0.804,1.512 0.53,-0.282 c -0.263,0.618 -0.214,1.322 0.083,1.881 0.821,1.545 2.792,1.663 4.292,0.866 1.533,-0.816 2.566,-2.517 1.728,-4.095 -0.297,-0.559 -0.854,-0.994 -1.479,-1.083 l -0.012,-0.022 0.519,-0.276 -0.804,-1.512 z m 5.82,0.292 c 0.419,0.789 -0.154,1.712 -0.916,2.117 -0.761,0.404 -1.836,0.358 -2.255,-0.431 -0.419,-0.789 0.137,-1.717 0.898,-2.122 0.762,-0.404 1.854,-0.353 2.273,0.436 z"
     ns3:knockout="Off" /><path
     style="clip-rule:evenodd;fill:#2b8cbe;fill-rule:evenodd"
     inkscape:connector-curvature="0"
     id="path119"
     d="m 8.486,119.46 0.651,1.61 5.946,-2.402 -0.651,-1.61 -2.942,1.189 c -0.714,0.289 -1.845,0.732 -2.231,-0.223 -0.367,-0.909 0.567,-1.246 1.281,-1.535 l 3.148,-1.272 -0.65,-1.61 -3.633,1.468 c -1.38,0.558 -2.33,1.45 -1.716,2.968 0.232,0.575 0.666,1.056 1.333,1.174 l 0.009,0.023 z"
     ns3:knockout="Off" /><polygon
     style="clip-rule:evenodd;fill:#2b8cbe;fill-rule:evenodd"
     id="polygon121"
     points="1.5,109.996 11.116,107.881 10.725,106.1 6.401,107.051 6.396,107.026 10.077,103.156 9.574,100.866 5.2,105.664 0,103.174 0.482,105.367 5.159,107.298 5.164,107.323 1.108,108.214 "
     ns3:knockout="Off" /><path
     style="clip-rule:evenodd;fill:#2b8cbe;fill-rule:evenodd"
     inkscape:connector-curvature="0"
     id="path123"
     d="m 2.206,94.56 0.217,1.698 0.596,-0.077 c -0.464,0.485 -0.667,1.162 -0.587,1.789 0.222,1.735 2.024,2.542 3.708,2.327 1.723,-0.221 3.291,-1.447 3.063,-3.219 -0.08,-0.627 -0.447,-1.23 -1,-1.535 L 8.2,95.518 8.783,95.443 8.565,93.745 Z m 5.34,2.33 c 0.114,0.886 -0.75,1.546 -1.604,1.656 -0.855,0.109 -1.844,-0.314 -1.958,-1.2 -0.113,-0.886 0.735,-1.558 1.59,-1.667 0.856,-0.11 1.859,0.325 1.972,1.211 z"
     ns3:knockout="Off" /><path
     style="clip-rule:evenodd;fill:#2b8cbe;fill-rule:evenodd"
     inkscape:connector-curvature="0"
     id="path125"
     d="m 1.917,85.985 0.039,1.712 0.601,-0.014 c -0.513,0.434 -0.785,1.085 -0.771,1.718 0.04,1.749 1.748,2.74 3.445,2.701 C 6.967,92.063 8.655,91.007 8.614,89.221 8.599,88.588 8.297,87.95 7.78,87.59 V 87.565 L 8.367,87.552 8.328,85.84 Z m 5.068,2.876 C 7.006,89.754 6.078,90.321 5.216,90.34 4.355,90.36 3.415,89.835 3.395,88.942 3.374,88.049 4.289,87.47 5.15,87.45 c 0.861,-0.02 1.815,0.518 1.835,1.411 z"
     ns3:knockout="Off" /><path
     style="clip-rule:evenodd;fill:#2b8cbe;fill-rule:evenodd"
     inkscape:connector-curvature="0"
     id="path127"
     d="m 2.178,81.435 -0.143,1.731 9.801,0.806 0.143,-1.731 -4.009,-0.33 0.002,-0.025 C 8.521,81.583 8.861,80.951 8.912,80.333 9.059,78.54 7.451,77.387 5.706,77.244 4.027,77.106 2.248,78.018 2.107,79.736 2.054,80.379 2.3,81.047 2.762,81.483 Z M 7.267,80.583 C 7.193,81.473 6.212,81.94 5.352,81.87 4.493,81.799 3.614,81.179 3.687,80.289 c 0.073,-0.89 1.042,-1.358 1.901,-1.288 0.86,0.071 1.752,0.692 1.679,1.582 z"
     ns3:knockout="Off" /><path
     style="clip-rule:evenodd;fill:#2b8cbe;fill-rule:evenodd"
     inkscape:connector-curvature="0"
     id="path129"
     d="m 4.104,70.777 c -0.542,0.402 -0.901,1.167 -1.021,1.801 -0.214,1.121 0.497,2.065 1.677,2.29 1.014,0.193 1.5,-0.333 1.883,-0.878 0.383,-0.545 0.625,-1.119 1.177,-1.013 0.411,0.078 0.622,0.435 0.55,0.812 -0.095,0.5 -0.525,0.873 -0.973,1.128 L 8.312,75.9 C 9.079,75.503 9.613,74.796 9.766,73.992 10.006,72.737 9.376,71.505 7.978,71.239 6.888,71.031 6.335,71.557 5.935,72.125 5.537,72.68 5.289,73.277 4.828,73.189 4.52,73.13 4.343,72.806 4.396,72.525 4.461,72.184 4.714,71.903 5.004,71.706 Z"
     ns3:knockout="Off" /><polygon
     style="clip-rule:evenodd;fill:#2b8cbe;fill-rule:evenodd"
     id="polygon131"
     points="2.507,66.03 2.092,67.717 4.198,68.234 4.056,68.812 5.552,69.18 5.694,68.602 10.425,69.764 10.839,68.077 6.109,66.915 6.363,65.879 4.867,65.511 4.612,66.547 "
     ns3:knockout="Off" /><path
     style="clip-rule:evenodd;fill:#2b8cbe;fill-rule:evenodd"
     inkscape:connector-curvature="0"
     id="path133"
     d="M 7.165,58.186 6.636,59.814 7.207,60 c -0.627,0.24 -1.1,0.765 -1.295,1.366 -0.541,1.664 0.743,3.164 2.358,3.689 1.652,0.537 3.594,0.098 4.146,-1.601 0.196,-0.602 0.122,-1.304 -0.248,-1.815 l 0.008,-0.024 0.559,0.182 0.529,-1.628 z m 3.833,4.39 c -0.276,0.85 -1.339,1.078 -2.159,0.812 -0.82,-0.266 -1.533,-1.072 -1.257,-1.921 0.276,-0.85 1.33,-1.094 2.15,-0.828 0.821,0.265 1.542,1.087 1.266,1.937 z"
     ns3:knockout="Off" /><path
     style="clip-rule:evenodd;fill:#2b8cbe;fill-rule:evenodd"
     inkscape:connector-curvature="0"
     id="path135"
     d="m 15.798,54.477 0.734,-1.574 -10.038,-4.681 -0.734,1.574 4.758,2.219 -0.01,0.022 c -0.625,0.134 -1.158,0.597 -1.425,1.17 -0.739,1.585 0.352,3.231 1.891,3.948 1.574,0.734 3.555,0.535 4.31,-1.084 0.268,-0.574 0.28,-1.28 -0.042,-1.827 l 0.011,-0.022 z m -1.814,0.551 c -0.377,0.81 -1.46,0.907 -2.242,0.543 -0.781,-0.364 -1.391,-1.251 -1.013,-2.061 0.377,-0.81 1.449,-0.913 2.23,-0.549 0.782,0.365 1.403,1.257 1.025,2.067 z"
     ns3:knockout="Off" /><path
     style="clip-rule:evenodd;fill:#2b8cbe;fill-rule:evenodd"
     inkscape:connector-curvature="0"
     id="path137"
     d="m 17.799,46.444 c 0.444,-0.684 0.235,-1.632 -0.499,-2.109 -0.734,-0.477 -1.684,-0.3 -2.137,0.397 -0.453,0.697 -0.228,1.637 0.511,2.107 0.734,0.476 1.68,0.289 2.125,-0.395 z"
     ns3:knockout="Off" /><circle
     style="fill:none"
     id="circle141"
     r="72.322998"
     cy="87.097"
     cx="84.096001"
     ns3:knockout="Off" /><path
     style="clip-rule:evenodd;fill-rule:evenodd"
     inkscape:connector-curvature="0"
     id="path147"
     d="m 43.113,38.278 h 81.966 c 0,0 0,31.617 0,51.833 0,41.585 -40.983,55.447 -40.983,55.447 0,0 -40.983,-13.862 -40.983,-55.388 0,-20.238 0,-51.892 0,-51.892 z"
     ns3:knockout="Off" /><path
     style="clip-rule:evenodd;fill:#ffffff;fill-rule:evenodd"
     inkscape:connector-curvature="0"
     id="path149"
     d="m 123.875,39.484 v 50.627 c 0,38.343 -35.66,52.643 -39.778,54.167 -4.118,-1.523 -39.778,-15.82 -39.778,-54.107 V 39.484 Z"
     ns3:knockout="Off" /><path
     style="clip-rule:evenodd;fill-rule:evenodd"
     inkscape:connector-curvature="0"
     id="path151"
     d="m 120.258,90.111 c 0,33.259 -28.841,47.271 -36.162,50.282 C 76.774,137.382 47.934,123.375 47.934,90.17 V 43.1 h 72.324 z"
     ns3:knockout="Off" /><path
     style="clip-rule:evenodd;fill-rule:evenodd"
     inkscape:connector-curvature="0"
     id="path153"
     d="M 84.096,139.087 C 76.166,135.731 49.14,121.915 49.14,90.17 V 44.306 h 69.913 v 45.806 c 0,31.797 -27.029,45.619 -34.957,48.975 z"
     ns3:knockout="Off" /><path
     style="fill:#ffffff"
     inkscape:connector-curvature="0"
     id="path155"
     d="m 84.408,78.422 c 1.629,0 2.567,1.198 2.567,2.587 0,0.355 -0.104,1.01 -0.41,1.302 h -0.172 c 0,0 -0.058,0.003 -0.058,-0.114 0,-0.119 0.136,-0.382 0.178,-0.576 0.049,-0.23 0.068,-0.589 0.068,-0.708 0,-0.758 -0.618,-2.064 -1.512,-2.064 H 84.39 c -0.125,0 -0.137,0.089 -0.229,0.174 0.104,0.4 0.474,0.373 0.762,0.64 0.427,0.398 0.621,1.074 0.621,1.487 0,0.321 -0.285,1.213 -0.82,1.213 h -2.161 c -0.462,0 -0.574,-0.736 -0.574,-0.929 0,-0.116 -0.1,-0.258 -0.1,-0.376 0.001,-1.332 1.04,-2.636 2.519,-2.636 z"
     ns3:knockout="Off" /><path
     style="fill:#ffffff"
     inkscape:connector-curvature="0"
     id="path157"
     d="m 84.631,76.43 c 0.309,0 1.175,0.167 1.384,0.451 0.103,0.135 0.32,0.214 0.32,0.333 0,0.011 0.542,0.866 0.536,1.098 v 0.537 c -0.937,-0.774 -1.604,-0.997 -2.463,-0.997 -0.789,0 -1.476,0.273 -2.255,0.901 -0.016,-0.071 -0.067,-0.045 -0.067,-0.163 0,-0.121 0.083,-0.239 0.114,-0.339 0.364,-1.182 1.339,-1.821 2.431,-1.821 z"
     ns3:knockout="Off" /><path
     style="fill:#ffffff"
     inkscape:connector-curvature="0"
     id="path159"
     d="m 88.325,76.196 c 1.696,0.274 3.539,0.846 5.315,1.775 -0.112,0.067 -0.223,0.138 -0.317,0.147 -1.375,0.173 -2.768,0.35 -4.163,0.442 -0.307,-0.723 -0.9,-2.131 -0.9,-2.25 0,-0.119 0.006,-0.063 0.065,-0.114 z"
     ns3:knockout="Off" /><path
     style="fill:#ffffff"
     inkscape:connector-curvature="0"
     id="path161"
     d="m 80.434,76.146 0.515,0.058 c -0.55,0.808 -0.89,1.651 -1.091,2.595 h -0.75 c -0.943,0.003 -3.865,-0.522 -4.373,-0.73 1.823,-1.119 3.874,-1.525 5.699,-1.923 z"
     ns3:knockout="Off" /><path
     style="fill:#ffffff"
     inkscape:connector-curvature="0"
     id="path163"
     d="m 86.114,75.86 c 0.25,0.046 0.568,0.015 0.845,0.11 0.649,0.23 1.301,1.746 1.301,2.287 0,0.119 0.046,0.274 0.096,0.432 -0.054,0.059 -0.047,0.089 0.002,0.66 -0.044,0.547 -0.243,1.393 -0.824,1.872 -0.059,-1.504 -0.262,-1.129 -0.213,-2.538 0.019,-0.521 -0.203,-1.207 -0.721,-1.756 -0.692,-0.74 -1.235,-0.875 -1.969,-0.875 -1.758,0 -2.937,1.483 -2.937,2.679 0,0.119 -0.053,0.151 -0.07,0.196 -0.029,0.188 0.009,0.382 -0.017,0.566 -0.087,0.576 -0.383,1.136 -0.316,1.722 -0.383,-0.008 -0.683,-1.147 -0.683,-1.463 0,-0.118 -0.1,-0.284 -0.1,-0.402 0,-1.056 0.877,-3.227 1.799,-3.441 z"
     ns3:knockout="Off" /><path
     style="fill:#ffffff"
     inkscape:connector-curvature="0"
     id="path165"
     d="m 77.596,74.958 c 0.235,0 0.396,0.878 0.396,0.878 0,0.362 -0.329,0.264 -0.658,0.413 -0.468,0.214 -0.995,0.356 -1.482,0.521 -0.592,0.209 -1.233,0.509 -1.838,0.797 -0.2,-0.234 -0.416,-0.691 -0.416,-0.925 0,-0.414 3.831,-1.684 3.998,-1.684 z"
     ns3:knockout="Off" /><path
     style="fill:#ffffff"
     inkscape:connector-curvature="0"
     id="path167"
     d="m 90.753,74.913 c 0.265,0 4.17,1.296 4.17,1.752 0,0.164 -0.281,0.807 -0.417,0.807 -0.125,0 -1.135,-0.469 -1.69,-0.702 -0.672,-0.284 -1.443,-0.459 -2.171,-0.74 -0.213,-0.078 -0.213,-0.251 -0.213,-0.313 0,-0.029 0.141,-0.804 0.321,-0.804 z"
     ns3:knockout="Off" /><path
     style="fill:#ffffff"
     inkscape:connector-curvature="0"
     id="path169"
     d="m 74.276,74.344 c 0.157,0.294 0.357,0.829 0.357,0.947 0,0.19 -1.043,0.615 -1.264,0.664 -0.046,-0.034 -0.464,-0.817 -0.464,-0.947 0,-0.18 0.989,-0.665 1.371,-0.664 z"
     ns3:knockout="Off" /><path
     style="fill:#ffffff"
     inkscape:connector-curvature="0"
     id="path171"
     d="m 94.208,74.297 c 0.136,0 1.407,0.571 1.407,0.757 0,0.119 -0.25,0.603 -0.407,0.898 -0.094,-0.018 -1.42,-0.445 -1.42,-0.756 0,-0.153 0.296,-0.899 0.42,-0.899 z"
     ns3:knockout="Off" /><path
     style="fill:#ffffff"
     inkscape:connector-curvature="0"
     id="path173"
     d="m 84.878,74.011 c 0.121,0 0.197,0.011 1.137,0.046 1.338,0.047 2.832,0.327 4.263,0.768 v 0.247 c 0.004,0.202 -0.175,0.743 -0.342,0.743 -0.123,0 -1.361,-0.324 -2.002,-0.416 C 87.348,75.31 86.7,75.29 86.108,75.197 L 84.62,75.145 c -0.057,-0.05 -0.107,-0.099 -0.161,-0.153 v -0.774 c 0.059,-0.091 0.294,-0.207 0.419,-0.207 z"
     ns3:knockout="Off" /><path
     style="fill:#ffffff"
     inkscape:connector-curvature="0"
     id="path175"
     d="m 84.048,74.013 c 0.108,0.15 0.164,0.352 0.164,0.473 0,0.698 -0.254,0.711 -0.922,0.711 h -0.627 c -0.785,0 -3.771,0.663 -4.104,0.663 -0.26,0 -0.421,-0.639 -0.421,-0.828 0,-0.119 0.005,-0.159 0.072,-0.246 0.339,-0.111 0.732,-0.201 1.133,-0.291 1.072,-0.236 2.173,-0.307 3.261,-0.438 z"
     ns3:knockout="Off" /><path
     style="fill:#ffffff"
     inkscape:connector-curvature="0"
     id="path177"
     d="m 87.938,72.54 c 0.531,0 5.751,1.164 5.751,1.637 0,0.241 -0.33,0.895 -0.412,0.972 -1.052,-0.334 -2.124,-0.708 -3.222,-0.986 -0.74,-0.184 -1.694,-0.191 -2.434,-0.543 0.046,-0.538 0.054,-0.566 -0.003,-0.627 0.058,-0.104 0.037,-0.453 0.32,-0.453 z"
     ns3:knockout="Off" /><path
     style="fill:#ffffff"
     inkscape:connector-curvature="0"
     id="path179"
     d="m 80.692,72.54 c 0.23,0.27 0.212,0.683 0.212,0.947 0,0.292 -0.372,0.254 -0.614,0.298 -0.788,0.141 -1.643,0.277 -2.415,0.521 -0.871,0.273 -1.99,0.705 -2.881,0.888 -0.161,-0.294 -0.36,-0.781 -0.36,-0.896 0,-0.337 1.041,-0.571 1.103,-0.59 1.567,-0.54 3.367,-0.979 4.955,-1.168 z"
     ns3:knockout="Off" /><path
     style="fill:#ffffff"
     inkscape:connector-curvature="0"
     id="path181"
     d="m 85.712,72.299 c 0.121,0 0.994,0.096 1.497,0.157 0.104,0.089 0.161,0.176 0.161,0.294 0,0.12 -0.052,0.343 -0.099,0.471 0.043,0.035 -0.022,0.248 -0.057,0.403 -1.25,-0.042 -1.725,-0.139 -1.848,-0.139 h -2.357 c -0.125,0 -1.091,0.097 -1.646,0.142 -0.181,-0.196 -0.213,-0.575 -0.213,-0.806 0,-0.119 0.004,-0.225 0.059,-0.313 0.503,-0.112 1.378,-0.21 1.503,-0.21 h 3 z"
     ns3:knockout="Off" /><path
     style="fill:#ffffff"
     inkscape:connector-curvature="0"
     id="path183"
     d="m 76.781,71.685 c 0.123,0 0.17,0.011 0.201,0.062 0.069,0.239 0.219,0.609 0.216,0.729 v 0.291 l -4.474,1.622 c -0.208,-0.295 -0.363,-0.735 -0.363,-0.854 0,-0.187 0.589,-0.46 0.658,-0.488 0.303,-0.146 2.997,-1.362 3.762,-1.362 z"
     ns3:knockout="Off" /><path
     style="fill:#ffffff"
     inkscape:connector-curvature="0"
     id="path185"
     d="m 91.568,71.637 c 0.296,0 4.689,1.479 4.689,1.85 0,0.119 -0.2,0.558 -0.318,0.795 -0.031,0.048 -0.052,0.061 -0.176,0.061 -0.122,0 -2.038,-0.808 -3.094,-1.178 -0.425,-0.148 -0.958,-0.227 -1.386,-0.407 -0.109,-0.048 -0.161,-0.173 -0.161,-0.29 0,-0.117 0.15,-0.532 0.269,-0.766 0.045,-0.017 0.053,-0.065 0.177,-0.065 z"
     ns3:knockout="Off" /><path
     style="fill:#ffffff"
     inkscape:connector-curvature="0"
     id="path187"
     d="m 73.104,71.256 c 0.123,0 0.13,0.051 0.172,0.068 0.121,0.229 0.272,0.668 0.272,0.788 0,0.208 -1.208,0.697 -1.414,0.759 -0.097,-0.104 -0.41,-0.762 -0.41,-0.927 0,-0.127 1.287,-0.688 1.38,-0.688 z"
     ns3:knockout="Off" /><path
     style="fill:#ffffff"
     inkscape:connector-curvature="0"
     id="path189"
     d="m 95.293,71.161 c 0.197,0 1.557,0.676 1.557,0.832 0,0.195 -0.278,0.83 -0.446,0.83 -0.122,0 -0.973,-0.427 -1.469,-0.637 -0.049,-0.03 -0.061,-0.051 -0.061,-0.169 0,-0.121 0.148,-0.427 0.148,-0.544 0,-0.119 0.147,-0.312 0.271,-0.312 z"
     ns3:knockout="Off" /><path
     style="fill:#ffffff"
     inkscape:connector-curvature="0"
     id="path191"
     d="m 85.223,70.593 c 0.124,0 0.799,0.011 1.78,0.093 0.659,0.062 4.021,0.589 4.021,0.926 0,0.245 -0.122,0.685 -0.312,0.97 -0.707,-0.14 -1.445,-0.301 -2.136,-0.413 -1.03,-0.165 -3.036,-0.342 -3.161,-0.342 h -0.691 c -0.105,-0.049 -0.164,-0.156 -0.217,-0.255 0,-0.052 0.05,-0.098 0,-0.479 0.012,-0.553 0.332,-0.5 0.716,-0.5 z"
     ns3:knockout="Off" /><path
     style="fill:#ffffff"
     inkscape:connector-curvature="0"
     id="path193"
     d="m 83.84,70.593 c 0.122,0 0.145,0.046 0.304,0.104 0.005,0.06 0.068,0.157 0.064,0.973 -0.054,0.055 -0.103,0.103 -0.161,0.157 h -0.893 c -1.168,0 -5.198,0.758 -5.497,0.806 -0.108,-0.252 -0.258,-0.658 -0.256,-0.776 v -0.306 c 1.402,-0.458 2.942,-0.672 4.411,-0.814 0.835,-0.079 1.905,-0.144 2.028,-0.144 z"
     ns3:knockout="Off" /><path
     style="fill:#ffffff"
     inkscape:connector-curvature="0"
     id="path195"
     d="m 93.306,70.501 h 0.205 c 0.074,-0.003 1.264,0.419 1.264,0.592 0,0.187 -0.27,0.829 -0.468,0.829 -0.125,0 -0.805,-0.233 -1.194,-0.398 -0.049,-0.017 -0.114,-0.123 -0.114,-0.243 0,-0.12 0.2,-0.53 0.307,-0.78 z"
     ns3:knockout="Off" /><path
     style="fill:#ffffff"
     inkscape:connector-curvature="0"
     id="path197"
     d="m 75.053,70.498 c 0.148,0 0.369,0.875 0.369,0.902 0,0.12 -0.01,0.138 -0.061,0.167 -0.445,0.211 -1.196,0.5 -1.32,0.5 -0.165,0 -0.442,-0.854 -0.442,-0.928 -0.001,-0.108 1.388,-0.641 1.454,-0.641 z"
     ns3:knockout="Off" /><path
     style="fill:#ffffff"
     inkscape:connector-curvature="0"
     id="path199"
     d="m 88.171,69.268 h 0.354 c 0.123,-0.002 0.851,0.188 1.258,0.289 0.006,0.064 0.053,0.04 0.053,0.158 0,0.13 -0.179,0.878 -0.342,0.878 -0.125,0 -0.875,-0.134 -1.313,-0.207 -0.093,-0.012 -0.221,-0.17 -0.221,-0.292 0.001,-0.118 0.102,-0.529 0.211,-0.826 z"
     ns3:knockout="Off" /><path
     style="fill:#ffffff"
     inkscape:connector-curvature="0"
     id="path201"
     d="m 80.238,69.266 c 0.197,0 0.27,0.764 0.27,0.829 0,0.493 -1.462,0.499 -1.714,0.493 -0.108,-0.247 -0.209,-0.708 -0.209,-0.825 -10e-4,-0.253 1.454,-0.497 1.653,-0.497 z"
     ns3:knockout="Off" /><path
     style="fill:#ffffff"
     inkscape:connector-curvature="0"
     id="path203"
     d="m 86.098,69.08 c 0.174,-0.005 1.618,-0.153 1.618,0.398 0,0.119 -0.049,0.479 -0.105,0.726 -0.107,0.054 -0.29,0.057 -0.415,0.057 -0.387,0 -0.818,0.017 -1.185,-0.163 -0.066,-0.082 -0.072,-0.191 -0.072,-0.31 0,-0.119 0.05,-0.462 0.159,-0.708 z"
     ns3:knockout="Off" /><path
     style="fill:#ffffff"
     inkscape:connector-curvature="0"
     id="path205"
     d="m 81.871,69.078 h 0.551 c 0.149,0.241 0.159,0.505 0.159,0.685 0,0.117 -0.002,0.152 -0.04,0.253 -0.203,0.175 -0.627,0.245 -0.878,0.242 H 80.96 c -0.056,-0.252 -0.155,-0.661 -0.155,-0.78 0,-0.378 0.734,-0.403 1.066,-0.4 z"
     ns3:knockout="Off" /><path
     style="fill:#ffffff"
     inkscape:connector-curvature="0"
     id="path207"
     d="m 93.863,68.837 c 0.137,0 3.678,1.288 3.678,1.545 0,0.115 -0.25,0.626 -0.461,0.971 -1.204,-0.524 -2.386,-1 -3.569,-1.45 -0.017,-0.036 -0.069,0.003 -0.069,-0.116 0,-0.095 0.234,-0.95 0.421,-0.95 z"
     ns3:knockout="Off" /><path
     style="fill:#ffffff"
     inkscape:connector-curvature="0"
     id="path209"
     d="m 74.634,68.837 c 0.184,0 0.393,0.973 0.393,0.973 0,0.119 -0.108,0.162 -0.159,0.194 -0.694,0.252 -1.936,0.778 -2.062,0.778 -0.12,0 -1.027,0.414 -1.316,0.52 -0.161,-0.294 -0.41,-0.805 -0.41,-0.92 -0.001,-0.353 3.455,-1.545 3.554,-1.545 z"
     ns3:knockout="Off" /><path
     style="fill:#ffffff"
     inkscape:connector-curvature="0"
     id="path211"
     d="m 86.456,67.368 c 0.371,0 3.122,0.396 3.565,0.486 0.055,0.04 0.114,0.105 0.114,0.224 0,0.191 -0.108,0.811 -0.393,0.903 l -3.604,-0.532 c -0.05,-0.582 0,-0.845 0,-0.963 -0.001,-0.118 0.197,-0.118 0.318,-0.118 z"
     ns3:knockout="Off" /><path
     style="fill:#ffffff"
     inkscape:connector-curvature="0"
     id="path213"
     d="m 81.824,67.376 c 0,0 0.607,0.098 0.638,0.147 0.021,0.101 0.069,0.603 0.069,0.722 0,0.119 -0.1,0.202 -0.158,0.284 -1.246,0.119 -2.528,0.26 -3.827,0.449 -0.112,-0.297 -0.211,-0.755 -0.211,-0.874 0,-0.121 0.004,-0.156 0.06,-0.244 0.478,-0.131 3.103,-0.492 3.429,-0.484 z"
     ns3:knockout="Off" /><path
     style="fill:#ffffff"
     inkscape:connector-curvature="0"
     id="path215"
     d="m 80.73,64.52 7.588,0.021 c 0.244,-0.059 0.72,0.327 0.922,0.612 v 0.132 h -9.565 c 0.075,-0.454 0.711,-0.776 1.055,-0.765 z"
     ns3:knockout="Off" /><path
     style="fill:#ffffff"
     inkscape:connector-curvature="0"
     id="path217"
     d="m 81.317,63.76 6.189,0.041 c 0.008,0.065 0.358,0.172 0.354,0.327 -0.109,0.057 -0.219,0.105 -0.318,0.105 l -6.525,-0.049 c -0.058,-0.052 -0.065,-0.046 -0.065,-0.165 0.001,-0.218 0.181,-0.175 0.365,-0.259 z"
     ns3:knockout="Off" /><path
     style="fill:#ffffff"
     inkscape:connector-curvature="0"
     id="path219"
     d="m 82.16,62.862 4.497,0.043 c 0.108,0.017 0.368,0.167 0.368,0.288 0,0.117 -0.159,0.185 -0.166,0.298 l -4.551,-0.016 c -0.244,-0.068 -0.466,-0.051 -0.466,-0.307 -0.001,-0.162 0.114,-0.286 0.318,-0.306 z"
     ns3:knockout="Off" /><path
     style="fill:#ffffff"
     inkscape:connector-curvature="0"
     id="path221"
     d="m 83.125,61.91 2.801,0.023 c 0.244,0.03 0.457,0.147 0.457,0.358 0,0.106 -0.047,0.225 -0.27,0.237 l -3.428,-0.011 c -0.125,-0.035 -0.375,-0.302 -0.4,-0.399 0.203,-0.23 0.605,-0.208 0.84,-0.208 z"
     ns3:knockout="Off" /><path
     style="fill:#ffffff"
     inkscape:connector-curvature="0"
     id="path223"
     d="m 82.29,60.493 c 0.985,0.119 1.5,0.278 2.243,0.278 0.604,0 1.119,-0.16 2.043,-0.278 v 0.201 c 0.005,0.119 -0.246,0.538 -0.368,0.767 -0.238,0.069 -0.588,0.119 -0.713,0.119 l -2.769,0.001 C 82.669,61.531 82.645,61.435 82.6,61.412 82.488,61.186 82.286,60.779 82.29,60.661 Z"
     ns3:knockout="Off" /><path
     style="fill:#ffffff"
     inkscape:connector-curvature="0"
     id="path225"
     d="m 79.274,58.492 c 0.32,0 0.901,0.538 0.882,0.851 h -0.261 c -0.202,0.003 -0.868,-0.493 -0.868,-0.636 0,-0.123 0.118,-0.215 0.247,-0.215 z"
     ns3:knockout="Off" /><path
     style="fill:#ffffff"
     inkscape:connector-curvature="0"
     id="path227"
     d="m 80.557,58.447 c 0.525,0 0.919,0.89 1.038,1.166 -0.056,0.062 -0.052,0.114 -0.172,0.114 -0.433,0 -1.16,-0.743 -1.16,-1.044 0,-0.2 0.196,-0.236 0.294,-0.236 z"
     ns3:knockout="Off" /><path
     style="fill:#ffffff"
     inkscape:connector-curvature="0"
     id="path229"
     d="m 81.989,58.4 c 0.499,0 0.592,0.943 0.592,1.069 0,0.127 -0.137,0.344 -0.27,0.399 -0.225,-0.055 -0.617,-0.765 -0.617,-1.065 0,-0.249 0.066,-0.403 0.295,-0.403 z"
     ns3:knockout="Off" /><path
     style="fill:#ffffff"
     inkscape:connector-curvature="0"
     id="path231"
     d="m 88.431,58.354 c 0.224,0 0.224,0.207 0.224,0.234 0,0.292 -0.618,0.882 -0.857,0.998 H 87.58 c -0.053,-0.054 -0.061,-0.023 -0.061,-0.142 10e-4,-0.157 0.518,-1.09 0.912,-1.09 z"
     ns3:knockout="Off" /><path
     style="fill:#ffffff"
     inkscape:connector-curvature="0"
     id="path233"
     d="m 87.224,58.354 c 0.232,0 0.295,0.187 0.295,0.282 0,0.162 -0.57,1.092 -0.916,1.092 -0.229,0 -0.221,-0.208 -0.221,-0.24 10e-4,-0.217 0.416,-1.134 0.842,-1.134 z"
     ns3:knockout="Off" /><path
     style="fill:#ffffff"
     inkscape:connector-curvature="0"
     id="path235"
     d="m 85.717,58.354 c 0.295,0 0.42,0.373 0.42,0.497 0,0.188 -0.272,1.113 -0.593,1.113 -0.359,0 -0.295,-0.645 -0.295,-0.665 0,-0.218 0.005,-0.945 0.468,-0.945 z"
     ns3:knockout="Off" /><path
     style="fill:#ffffff"
     inkscape:connector-curvature="0"
     id="path237"
     d="m 84.481,58.354 c 0.397,0 0.421,0.555 0.421,0.709 0,0.16 -0.079,0.901 -0.396,0.901 -0.389,0 -0.443,-0.959 -0.443,-0.996 0,-0.279 0.062,-0.614 0.418,-0.614 z"
     ns3:knockout="Off" /><path
     style="fill:#ffffff"
     inkscape:connector-curvature="0"
     id="path239"
     d="m 83.2,58.354 c 0.412,0 0.566,0.532 0.566,0.778 0,0.129 -0.146,0.785 -0.346,0.785 -0.407,0 -0.591,-1.057 -0.591,-1.091 0,-0.214 0.074,-0.472 0.371,-0.472 z"
     ns3:knockout="Off" /><path
     style="fill:#ffffff"
     inkscape:connector-curvature="0"
     id="path241"
     d="m 74.965,55.076 c 0.382,-0.04 0.409,0.577 0.409,0.714 0,0.996 -1.283,1.281 -1.776,1.281 -0.945,0 -2.574,-0.923 -3.415,-1.995 z"
     ns3:knockout="Off" /><path
     style="fill:#ffffff"
     inkscape:connector-curvature="0"
     id="path243"
     d="m 93.043,55 c 0,0 -0.862,2.188 -2.858,3.115 -0.112,0.052 -0.471,-0.236 -0.593,-0.236 -0.124,0 -0.519,0.236 -0.642,0.236 -0.123,0 -0.47,-0.189 -0.592,-0.189 -0.125,0 -0.371,0.189 -0.494,0.189 -0.1,0 -0.469,-0.189 -0.64,-0.189 -0.125,0 -0.643,0.189 -0.695,0.189 -0.121,0 -0.517,-0.189 -0.64,-0.189 -0.123,0 -0.592,0.234 -0.715,0.234 -0.125,0 -0.542,-0.234 -0.667,-0.234 -0.124,0 -0.469,0.189 -0.59,0.189 -0.126,0 -0.471,-0.189 -0.592,-0.189 -0.124,0 -0.643,0.282 -0.766,0.282 -0.125,0 -0.544,-0.188 -0.668,-0.188 -0.122,0 -0.419,0.188 -0.542,0.188 -0.124,0 -0.618,-0.233 -0.74,-0.233 -0.125,0 -0.544,0.233 -0.668,0.233 -0.121,0 -0.617,-0.188 -0.74,-0.188 -0.396,0 -0.642,0.381 -0.74,0.381 -0.125,0 -0.361,-0.209 -0.509,-0.327 -0.649,-0.505 -1.29,-1.347 -1.604,-1.87 C 76.16,55.903 75.773,55 75.773,55 Z"
     ns3:knockout="Off" /><path
     style="fill:#ffffff"
     inkscape:connector-curvature="0"
     id="path245"
     d="M 94.858,54.075 V 54.5 c -0.082,-0.149 -0.108,-0.085 -0.155,-0.085 -0.251,0 -18.359,0 -18.481,0 -0.236,0 -0.527,0 -0.843,-0.062 v -0.278 z"
     ns3:knockout="Off" /><path
     style="fill:#ffffff"
     inkscape:connector-curvature="0"
     id="path247"
     d="m 68.166,53.416 c 0.341,0 0.586,0.666 1.118,0.666 h 5.433 c 0.105,0.104 0.164,0.213 0.158,0.327 h -6.281 c -0.205,0.006 -0.871,-0.417 -0.871,-0.708 -0.001,-0.182 0.413,-0.285 0.443,-0.285 z"
     ns3:knockout="Off" /><path
     style="fill:#ffffff"
     inkscape:connector-curvature="0"
     id="path249"
     d="m 86.934,52.186 h 0.159 c 0.125,-10e-4 1.108,0.808 1.66,1.25 -0.049,0.111 -0.197,0.173 -0.321,0.173 -0.586,0 -1.553,-0.873 -1.553,-1.257 -0.002,-0.123 0.048,-0.099 0.055,-0.166 z"
     ns3:knockout="Off" /><path
     style="fill:#ffffff"
     inkscape:connector-curvature="0"
     id="path251"
     d="m 84.805,52.087 c 0.251,0 0.443,0.771 0.443,0.831 0,0.397 -0.291,0.544 -0.543,0.544 -0.395,0 -0.444,-0.158 -0.444,-0.378 0,-0.155 0.283,-0.997 0.544,-0.997 z"
     ns3:knockout="Off" /><path
     style="fill:#ffffff"
     inkscape:connector-curvature="0"
     id="path253"
     d="m 85.654,52.039 h 0.203 c 0.341,0 1.069,1.054 1.069,1.116 0,0.267 -0.279,0.357 -0.442,0.357 -0.527,0 -0.94,-0.923 -0.94,-1.14 0,-0.119 0.053,-0.224 0.11,-0.333 z"
     ns3:knockout="Off" /><path
     style="fill:#ffffff"
     inkscape:connector-curvature="0"
     id="path255"
     d="m 82.812,52.039 c 0.058,0.055 0.117,0.096 0.117,0.214 0,0.257 -0.878,1.259 -1.168,1.255 h -0.595 c -0.055,-0.051 -0.065,-0.02 -0.065,-0.141 -0.001,-0.118 1.324,-1.219 1.711,-1.328 z"
     ns3:knockout="Off" /><path
     style="fill:#ffffff"
     inkscape:connector-curvature="0"
     id="path257"
     d="m 83.916,51.945 c 0.184,0 0.196,0.21 0.196,0.239 0,0.35 -0.487,1.328 -0.913,1.328 -0.198,0 -0.371,-0.102 -0.371,-0.307 10e-4,-0.25 0.63,-1.26 1.088,-1.26 z"
     ns3:knockout="Off" /><path
     style="fill:#ffffff"
     inkscape:connector-curvature="0"
     id="path259"
     d="m 83.048,50.999 3.81,-0.031 c 0.007,0.064 0.166,0.146 0.166,0.266 0,0.118 -0.138,0.121 -0.327,0.162 l -3.904,0.026 C 82.736,51.37 82.688,51.37 82.632,51.313 V 51.15 c 0.111,-0.055 0.263,-0.107 0.416,-0.151 z"
     ns3:knockout="Off" /><path
     style="fill:#ffffff"
     inkscape:connector-curvature="0"
     id="path261"
     d="m 97.491,50.712 c 1.412,0 3.26,0.837 3.26,2.514 0,2.004 -2.83,3.595 -4.565,3.902 -0.695,0.128 -1.433,0.41 -2.125,0.494 -1.165,0.149 -2.565,0.502 -3.753,1.487 -0.066,-0.052 -0.073,-0.046 -0.073,-0.165 0,-0.658 2.096,-1.552 2.188,-1.576 1.61,-0.493 3.459,-0.848 5.083,-1.592 1.42,-0.655 2.159,-1.577 2.159,-2.645 0,-1.139 -1.364,-1.615 -2.124,-1.615 -0.458,0 -1.725,0.305 -1.926,0.643 0.047,0.083 0.192,0.126 0.284,0.181 0.123,0.071 0.308,0.4 0.308,0.484 0,0.512 -0.494,0.784 -0.962,0.784 -0.524,0 -1.112,-0.292 -1.112,-0.88 0,-0.12 0.152,-0.399 0.284,-0.583 0.741,-1.02 2.092,-1.433 3.074,-1.433 z"
     ns3:knockout="Off" /><path
     style="fill:#ffffff"
     inkscape:connector-curvature="0"
     id="path263"
     d="m 84.829,48.814 c 0.345,0 0.814,0.22 0.814,0.69 0,0.509 -0.407,0.781 -0.837,0.781 -0.427,0 -0.742,-0.415 -0.742,-0.735 -10e-4,-0.439 0.336,-0.736 0.765,-0.736 z"
     ns3:knockout="Off" /><path
     style="fill:#ffffff"
     inkscape:connector-curvature="0"
     id="path265"
     d="m 78.924,47.447 c -0.363,0.585 -1.041,0.47 -1.535,0.851 -0.408,0.312 -0.064,1.133 -0.757,1.133 -0.121,0 -1.036,-0.189 -1.16,-0.189 -0.259,0 -0.35,-0.063 -0.64,0.308 0.364,0.473 0.887,0.735 0.887,1.256 0,0.12 -0.05,0.19 -0.05,0.309 0,0.327 -0.994,0.644 -1.404,0.737 l -1.486,-0.048 c -0.273,-0.045 -0.814,0.392 -1.029,0.712 -0.231,-0.198 -0.522,-0.564 -0.522,-0.831 0,-0.54 0.777,-0.358 0.918,-0.358 h 0.776 c 0.401,0 0.971,-0.561 0.971,-0.875 0,-0.756 -1.333,-0.79 -1.333,-1.616 0,-0.634 0.814,-0.782 1.21,-0.782 0.123,0 1.777,0.381 1.899,0.381 0.47,0 0.888,-0.453 1.297,-0.698 0.302,-0.175 0.75,-0.24 1.097,-0.252 0.642,-0.029 0.731,0.003 0.861,-0.038 z"
     ns3:knockout="Off" /><path
     style="fill:#ffffff"
     inkscape:connector-curvature="0"
     id="path267"
     d="m 84.487,113.375 c 0.617,0 1.345,0.381 1.334,1.257 0.099,6.526 0.124,6.554 0.112,6.6 0.014,0.23 0.113,0.544 0.113,0.662 0,0.119 0.159,0.61 0.231,0.895 0.336,1.234 1.404,2.023 2.457,2.023 2.936,0 8.684,-4.021 10.879,-6.136 -0.239,-0.221 -0.76,-0.782 -0.926,-0.901 -0.059,-0.047 -0.557,-0.453 -0.557,-0.693 0,-0.231 3.312,-2.079 3.447,-2.172 0.453,-0.304 0.902,-0.602 1.286,-0.9 0.234,-0.185 1.133,-0.856 1.455,-0.856 0.327,0 0.036,1.51 0.09,1.569 -0.097,0.531 -0.294,1.524 -0.294,1.643 0,0.118 -0.296,1.044 -0.296,1.164 0,0.665 -0.676,2.145 -0.904,2.619 -0.068,0.14 -0.144,0.24 -0.25,0.342 -0.598,-0.041 -1.709,-1.072 -1.894,-1.072 -0.273,0 -2.744,2.363 -3.724,3.285 -0.612,0.566 -1.325,1.063 -1.876,1.546 -1.203,1.069 -8.376,6.635 -10.871,6.635 -2.492,0 -9.666,-5.566 -10.87,-6.635 -0.55,-0.482 -1.264,-0.979 -1.875,-1.546 -0.98,-0.922 -3.452,-3.285 -3.724,-3.285 -0.183,0 -1.296,1.032 -1.895,1.072 -0.107,-0.102 -0.182,-0.202 -0.25,-0.342 -0.229,-0.474 -0.902,-1.954 -0.902,-2.619 0,-0.12 -0.297,-1.046 -0.297,-1.164 0,-0.119 -0.197,-1.112 -0.296,-1.643 0.056,-0.059 -0.235,-1.569 0.093,-1.569 0.321,0 1.22,0.671 1.454,0.856 0.383,0.298 0.833,0.597 1.283,0.9 0.135,0.093 3.45,1.94 3.45,2.172 0,0.24 -0.496,0.646 -0.558,0.693 -0.166,0.12 -0.686,0.68 -0.925,0.901 2.197,2.115 7.94,6.136 10.876,6.136 1.058,0 2.124,-0.789 2.458,-2.023 0.074,-0.284 0.236,-0.775 0.236,-0.895 0,-0.118 0.095,-0.431 0.11,-0.662 -0.013,-0.046 0.015,-0.074 0.112,-6.6 -0.012,-0.876 0.714,-1.257 1.334,-1.257 z"
     ns3:knockout="Off" /><path
     style="fill:#ffffff"
     inkscape:connector-curvature="0"
     id="path269"
     d="m 66.064,92.743 -0.005,15.029 c 0,0 1.562,1.233 7.418,-0.326 0,0 5.879,-2.223 10.406,0.495 V 92.484 c 0,0 -2.902,-2.591 -10.062,-0.705 0,0 -4.569,1.479 -6.616,0.989 -1.538,-0.368 -1.141,-0.025 -1.141,-0.025 z"
     ns3:knockout="Off" /><path
     style="fill:#ffffff"
     inkscape:connector-curvature="0"
     id="path271"
     d="m 83.752,112.087 c -0.159,0.058 -0.324,0.058 -0.482,0 -0.004,-0.059 -0.055,-0.059 -0.055,-0.179 0,-0.339 0.44,-1.673 0.523,-1.798 0.019,0.213 0.069,1.205 0.014,1.977 z"
     ns3:knockout="Off" /><path
     style="fill:#ffffff"
     inkscape:connector-curvature="0"
     id="path273"
     d="m 84.177,110.065 c 0.035,0.134 0.157,0.298 0.19,0.469 0.09,0.449 0.079,0.944 0.073,1.025 v 0.581 l -0.393,0.019 c -0.011,-0.26 -0.044,-0.302 -0.044,-0.321 0,-0.121 0,0 0,-0.121 v -1.12 c 0,-0.118 0.075,-0.061 0.003,-0.072 0.049,-0.117 0.098,-0.303 0.171,-0.46 z"
     ns3:knockout="Off" /><path
     style="fill:#ffffff"
     inkscape:connector-curvature="0"
     id="path275"
     d="m 83.357,110.018 v 0.348 c 0.007,0.116 -0.289,1.005 -0.445,1.491 h -0.224 c -0.056,-0.05 -0.112,-0.14 -0.112,-0.254 0.001,-0.231 0.714,-1.543 0.781,-1.585 z"
     ns3:knockout="Off" /><path
     style="fill:#ffffff"
     inkscape:connector-curvature="0"
     id="path277"
     d="m 83.061,109.832 c -0.191,0.503 -0.437,1.021 -0.692,1.551 -0.061,0.006 -0.038,0.052 -0.161,0.052 -0.123,0 -0.221,-0.12 -0.221,-0.234 -10e-4,-0.198 0.993,-1.334 1.074,-1.369 z"
     ns3:knockout="Off" /><path
     style="fill:#ffffff"
     inkscape:connector-curvature="0"
     id="path279"
     d="m 82.718,109.452 -0.056,0.21 c -0.296,0.384 -0.583,0.77 -0.891,1.205 -0.247,-0.12 -0.229,-0.249 -0.229,-0.258 0,-0.232 0.933,-1.063 1.176,-1.157 z"
     ns3:knockout="Off" /><path
     style="fill:#ffffff"
     inkscape:connector-curvature="0"
     id="path281"
     d="m 102.39,92.743 0.008,15.029 c 0,0 -1.56,1.233 -7.419,-0.326 0,0 -5.79,-2.223 -10.393,0.495 V 92.456 c 0,0 2.89,-2.563 10.049,-0.677 0,0 4.567,1.479 6.616,0.989 1.539,-0.368 1.139,-0.025 1.139,-0.025 z"
     ns3:knockout="Off" /><path
     style="fill:#ffffff"
     inkscape:connector-curvature="0"
     id="path283"
     d="m 84.705,112.087 c 0.158,0.058 0.324,0.058 0.482,0 0.003,-0.059 0.053,-0.059 0.053,-0.179 0,-0.339 -0.44,-1.673 -0.521,-1.798 -0.02,0.213 -0.068,1.205 -0.014,1.977 z"
     ns3:knockout="Off" /><path
     style="fill:#ffffff"
     inkscape:connector-curvature="0"
     id="path285"
     d="m 85.101,110.018 v 0.348 c -0.005,0.116 0.288,1.005 0.445,1.491 h 0.22 c 0.058,-0.05 0.114,-0.14 0.114,-0.254 0.001,-0.231 -0.714,-1.543 -0.779,-1.585 z"
     ns3:knockout="Off" /><path
     style="fill:#ffffff"
     inkscape:connector-curvature="0"
     id="path287"
     d="m 85.4,109.832 c 0.189,0.503 0.433,1.021 0.689,1.551 0.061,0.006 0.037,0.052 0.16,0.052 0.124,0 0.224,-0.12 0.224,-0.234 0,-0.198 -0.995,-1.334 -1.073,-1.369 z"
     ns3:knockout="Off" /><path
     style="clip-rule:evenodd;fill:#ffffff;fill-rule:evenodd"
     inkscape:connector-curvature="0"
     id="path289"
     d="m 103.074,93.068 v 15.521 l -0.192,-0.247 -0.241,-0.354 V 92.663 Z m 0.599,0.277 v 16.011 l -0.421,-0.574 V 93.09 Z m 0.53,0.362 v 16.298 l -0.123,-0.13 -0.236,-0.302 V 93.607 Z"
     ns3:knockout="Off" /><path
     style="fill:#ffffff"
     inkscape:connector-curvature="0"
     id="path291"
     d="m 85.739,109.452 0.058,0.21 c 0.293,0.384 0.578,0.77 0.891,1.205 0.246,-0.12 0.226,-0.249 0.226,-0.258 -0.001,-0.232 -0.931,-1.063 -1.175,-1.157 z"
     ns3:knockout="Off" /><path
     style="fill:#ffffff"
     inkscape:connector-curvature="0"
     id="path293"
     d="m 104.684,94.174 h 0.596 v 17.058 l -17.969,0.008 -0.006,-0.045 c -0.619,1.021 -1.726,1.723 -3.001,1.772 l -0.073,-0.001 c -0.024,0 -0.049,0.002 -0.073,0.001 -1.276,-0.05 -2.384,-0.751 -3.004,-1.773 l -0.006,0.046 H 63.177 V 94.174 h 0.597 v 16.492 h 17.451 l -0.045,0.335 c 0.592,1.078 1.733,1.819 3.051,1.846 1.317,-0.027 2.457,-0.768 3.048,-1.845 l -0.046,-0.336 h 17.452 V 94.174 Z"
     ns3:knockout="Off" /><ellipse
     ns3:knockout="Off"
     cx="71.742996"
     cy="53.285"
     rx="0.36300001"
     ry="0.34900001"
     id="ellipse295"
     style="fill:#ffffff" /><path
     style="fill:#ffffff"
     inkscape:connector-curvature="0"
     id="path299"
     d="m 89.639,58.492 c -0.321,0 -0.901,0.538 -0.883,0.851 h 0.26 c 0.204,0.003 0.87,-0.493 0.87,-0.636 0.001,-0.123 -0.116,-0.215 -0.247,-0.215 z"
     ns3:knockout="Off" /><path
     style="fill:#ffffff"
     inkscape:connector-curvature="0"
     id="path301"
     d="m 84.208,91.866 -1.432,-0.932 c 0.006,-0.32 -0.005,-0.891 0.002,-1.251 -0.012,-0.877 0.714,-1.258 1.334,-1.258 h 0.375 c 0.617,0 1.345,0.381 1.334,1.258 0.004,0.36 0.011,0.931 0.017,1.251 z"
     ns3:knockout="Off" /><polygon
     style="fill:#ffffff"
     id="polygon303"
     points="73.937,82.985 76.152,82.956 76.152,86.181 73.954,85.778 "
     ns3:knockout="Off" /><polygon
     style="fill:#ffffff"
     id="polygon305"
     points="70.189,83.318 73.49,83.318 73.49,85.487 70.189,84.989 "
     ns3:knockout="Off" /><polygon
     style="fill:#ffffff"
     id="polygon307"
     points="69.951,83.365 69.282,83.847 69.282,85.528 69.953,85.113 "
     ns3:knockout="Off" /><path
     inkscape:connector-curvature="0"
     id="path309"
     d="m 74.908,83.259 c 0.057,-0.02 0.101,-0.026 0.161,-0.026 0.305,0 0.551,0.237 0.551,0.529 0,0.293 -0.246,0.532 -0.551,0.532 -0.119,0 -0.316,-0.192 -0.406,-0.253 0.219,-0.071 0.478,-0.028 0.478,-0.348 0,-0.171 -0.101,-0.338 -0.233,-0.434 z"
     ns3:knockout="Off" /><path
     inkscape:connector-curvature="0"
     id="path311"
     d="m 74.908,84.591 c 0.057,-0.019 0.101,-0.029 0.161,-0.029 0.305,0 0.551,0.236 0.551,0.531 0,0.292 -0.246,0.528 -0.551,0.528 -0.119,0 -0.316,-0.188 -0.406,-0.251 0.219,-0.07 0.478,-0.026 0.478,-0.346 0,-0.172 -0.101,-0.338 -0.233,-0.433 z"
     ns3:knockout="Off" /><polygon
     style="fill:#ffffff"
     id="polygon313"
     points="70.119,85.246 73.475,85.762 73.475,86.233 69.495,85.624 "
     ns3:knockout="Off" /><polygon
     style="fill:#ffffff"
     id="polygon315"
     points="73.966,86.073 76.152,86.481 76.147,86.913 73.965,86.473 "
     ns3:knockout="Off" /><polygon
     style="fill:#ffffff"
     id="polygon317"
     points="76.557,86.399 84.208,87.741 84.208,88.121 76.557,86.869 "
     ns3:knockout="Off" /><polygon
     style="fill:#ffffff"
     id="polygon319"
     points="94.446,82.956 92.262,82.956 92.262,86.181 94.462,85.778 "
     ns3:knockout="Off" /><polygon
     style="fill:#ffffff"
     id="polygon321"
     points="98.224,83.318 94.923,83.318 94.923,85.487 98.224,84.989 "
     ns3:knockout="Off" /><path
     inkscape:connector-curvature="0"
     id="path323"
     d="m 93.035,83.259 c 0.056,-0.02 0.1,-0.026 0.165,-0.026 0.303,0 0.55,0.237 0.55,0.529 0,0.293 -0.248,0.532 -0.55,0.532 -0.122,0 -0.317,-0.192 -0.406,-0.253 0.218,-0.071 0.476,-0.028 0.476,-0.348 -10e-4,-0.171 -0.102,-0.338 -0.235,-0.434 z"
     ns3:knockout="Off" /><path
     inkscape:connector-curvature="0"
     id="path325"
     d="m 93.035,84.591 c 0.056,-0.019 0.1,-0.029 0.165,-0.029 0.303,0 0.55,0.236 0.55,0.531 0,0.292 -0.248,0.528 -0.55,0.528 -0.122,0 -0.317,-0.188 -0.406,-0.251 0.218,-0.07 0.476,-0.026 0.476,-0.346 -10e-4,-0.172 -0.102,-0.338 -0.235,-0.433 z"
     ns3:knockout="Off" /><polygon
     style="fill:#ffffff"
     id="polygon327"
     points="98.224,85.228 94.939,85.762 94.939,86.233 97.94,85.721 "
     ns3:knockout="Off" /><polygon
     style="fill:#ffffff"
     id="polygon329"
     points="94.446,86.073 92.262,86.481 92.262,86.837 94.45,86.473 "
     ns3:knockout="Off" /><polygon
     style="fill:#ffffff"
     id="polygon331"
     points="91.832,83.346 91.832,85.984 84.208,87.309 76.584,85.984 76.584,83.346 84.208,83.346 "
     ns3:knockout="Off" /><polygon
     style="fill:#ffffff"
     id="polygon333"
     points="91.857,86.399 84.208,87.741 84.208,88.121 91.857,86.869 "
     ns3:knockout="Off" /><path
     inkscape:connector-curvature="0"
     id="path335"
     d="m 87.426,96.341 c 0.848,0.023 1.511,0.447 1.511,1.143 0,0.333 -0.139,0.607 -0.545,0.886 0.262,0.375 0.792,0.71 0.792,1.183 0,1.037 -1.139,1.216 -1.832,1.216 -0.125,0 -0.475,0 -1.422,-0.049 -0.06,-0.051 -0.107,-0.051 -0.165,-0.116 0.104,-0.157 0.249,-0.342 0.323,-0.527 V 96.8 c -0.069,-0.137 -0.222,-0.28 -0.268,-0.401 0.169,-0.01 0.367,-0.058 1.606,-0.058 z"
     ns3:knockout="Off" /><path
     inkscape:connector-curvature="0"
     id="path337"
     d="m 91.737,96.626 c 1.254,0 1.757,1.137 1.757,2.024 0,1.083 -0.719,2.261 -1.907,2.261 -1.188,0 -1.908,-1.137 -1.908,-2.024 0,-0.95 0.62,-2.261 2.058,-2.261 z"
     ns3:knockout="Off" /><path
     inkscape:connector-curvature="0"
     id="path339"
     d="m 94.111,96.819 c 1.616,0 1.152,1.112 2.277,2.378 0.27,-0.335 0.224,-0.891 0.224,-1.285 0,-0.339 -0.01,-0.362 -0.344,-0.697 0.072,-0.017 0.072,-0.064 0.197,-0.064 0.125,0 0.675,0.096 0.99,0.211 -0.663,0.381 -0.477,1.143 -0.543,1.719 -0.119,1.042 -0.104,1.67 -0.216,2.306 -0.93,-1.006 -1.241,-2.092 -1.999,-3.047 -0.038,0.003 -0.069,0.088 -0.103,0.13 -0.06,0.564 -0.259,1.681 -0.259,1.801 0,0.269 0.221,0.552 0.394,0.817 -0.326,0.07 -0.793,0.12 -1.181,-0.044 0,0 -0.003,-0.068 0.014,-0.113 0.517,-0.217 0.427,-1.066 0.427,-1.447 0,-0.119 0.248,-1.716 0.248,-1.834 0,-0.148 -0.149,-0.421 -0.397,-0.663 0.118,-0.139 0.186,-0.168 0.271,-0.168 z"
     ns3:knockout="Off" /><path
     inkscape:connector-curvature="0"
     id="path341"
     d="m 98.513,97.343 c 0.408,0.048 1.154,0.048 1.312,0.099 0,0 0.059,-0.005 0.059,0.114 0,0.118 -0.15,0.211 -0.15,0.334 0,0.117 0.283,0.951 0.477,1.417 0.241,0.597 0.334,1.466 0.957,1.998 v 0.169 c -0.513,0.058 -1.014,0.058 -1.521,0.003 0,0 -0.062,0.003 -0.062,-0.111 0,-0.121 0.198,-0.289 0.198,-0.407 0,-0.285 -0.217,-0.762 -0.574,-0.762 h -0.831 c -0.119,0.057 -0.327,0.589 -0.327,0.787 0,0.114 0.096,0.225 0.195,0.388 -0.365,0.065 -0.771,0.016 -1.132,-0.047 0.099,-0.165 0.368,-0.264 0.473,-0.494 0.435,-0.919 1.06,-2.824 1.06,-2.941 0,-0.123 -0.201,-0.285 -0.201,-0.407 0,-0.117 0.009,-0.086 0.067,-0.14 z"
     ns3:knockout="Off" /><path
     style="fill:#ffffff"
     inkscape:connector-curvature="0"
     id="path343"
     d="m 91.832,96.96 c 0.536,0 0.634,0.504 0.722,1.022 -0.051,0.573 -0.057,0.604 -0.002,0.661 -0.018,0.119 -0.148,1.935 -1.015,1.935 -0.769,0 -0.867,-1.191 -0.867,-1.475 0,-0.411 0.179,-2.143 1.162,-2.143 z"
     ns3:knockout="Off" /><path
     style="fill:#ffffff"
     inkscape:connector-curvature="0"
     id="path345"
     d="m 98.86,98.673 c 0.104,0.046 0.478,0.774 0.478,0.928 0,0.121 -0.049,0.049 -0.057,0.164 h -0.622 c -0.057,-0.051 -0.114,-0.115 -0.114,-0.235 0,-0.117 0.152,-0.559 0.315,-0.857 z"
     ns3:knockout="Off" /><path
     style="fill:#ffffff"
     inkscape:connector-curvature="0"
     id="path347"
     d="m 87.354,98.625 c 0.561,0 0.841,0.389 0.841,0.837 0,0.438 -0.333,0.927 -0.816,0.927 -0.125,0 -0.263,-0.055 -0.421,-0.157 V 98.93 c -0.003,-0.244 0.165,-0.305 0.396,-0.305 z"
     ns3:knockout="Off" /><path
     style="fill:#ffffff"
     inkscape:connector-curvature="0"
     id="path349"
     d="m 87.426,96.77 c 0.464,0 0.668,0.191 0.668,0.667 0,0.494 -0.229,0.81 -0.741,0.81 -0.125,0 -0.242,-0.056 -0.347,-0.158 0,-0.96 0.046,-1.102 0.053,-1.257 0.11,-0.059 0.243,-0.062 0.367,-0.062 z"
     ns3:knockout="Off" /><path
     inkscape:connector-curvature="0"
     id="path353"
     d="m 80.235,96.339 h 0.999 c 0.057,0.105 0.057,0.933 0,1.09 -0.196,-0.004 -0.321,-0.553 -0.618,-0.655 -0.093,-0.029 -0.213,-0.056 -0.338,-0.056 -0.261,0 -0.668,0.103 -0.668,0.451 0,0.951 2.08,0.913 2.08,2.429 0,0.72 -0.526,1.164 -1.287,1.164 -0.125,0 -0.873,-0.142 -1.273,-0.21 -0.176,-0.199 -0.162,-0.575 -0.162,-0.86 0,-0.121 0.05,-0.245 0.118,-0.403 0.311,0.553 0.753,1.094 1.39,1.094 0.284,0 0.521,-0.186 0.521,-0.5 0,-0.874 -2.08,-1.061 -2.08,-2.403 0,-0.823 0.649,-1.142 1.318,-1.141 z"
     ns3:knockout="Off" /><path
     inkscape:connector-curvature="0"
     id="path355"
     d="m 77.527,96.718 c 0.125,0 0.187,0.096 0.288,0.153 v 1.035 c -0.182,-0.198 -0.296,-0.419 -0.477,-0.563 -0.165,-0.139 -0.503,-0.197 -0.628,-0.197 -0.117,0 -0.716,0.082 -0.766,0.359 0.049,0.568 0.041,0.633 0,0.667 0.064,0.092 -0.031,0.592 0.248,0.592 0.334,0 0.427,-0.332 0.672,-0.522 0.067,0.108 0.067,0.202 0.118,0.31 -0.054,0.062 -0.049,0.092 -0.013,0.877 -0.225,-0.177 -0.388,-0.379 -0.631,-0.379 -0.215,0 -0.265,0.196 -0.295,0.313 0.05,0.611 0.042,0.679 0,0.718 0.05,0.178 0.023,0.424 0.109,0.604 0.086,0.177 0.285,0.124 0.387,0.124 0.582,0 1.14,-0.194 1.407,-0.95 0.071,0.054 0.078,0.119 0.078,0.237 0,0.121 -0.096,0.552 -0.172,0.85 -0.736,0.197 -2.21,0.391 -2.333,0.385 h -0.656 c -0.006,-0.116 0.162,-0.264 0.226,-0.364 0.081,-0.134 0.113,-0.371 0.113,-0.489 l -0.148,-2.666 c 0,-0.257 -0.297,-0.576 -0.395,-0.632 -0.003,-0.059 0.058,-0.126 0.113,-0.164 0.896,-0.106 2.634,-0.298 2.755,-0.298 z"
     ns3:knockout="Off" /><path
     inkscape:connector-curvature="0"
     id="path357"
     d="m 72.85,97.289 c 0.859,0 1.46,0.458 1.46,1.26 0,0.899 -0.472,1.357 -1.854,1.368 -0.167,0.06 -0.127,0.377 -0.127,0.418 0,0.118 0.066,0.65 0.208,0.967 0.051,0.112 0.227,0.179 0.385,0.289 -0.15,0.291 -0.65,0.178 -0.914,0.22 -0.644,0 -0.762,-0.004 -0.815,-0.062 -0.004,-0.104 0.128,-0.15 0.179,-0.257 0.099,-0.225 0.064,-0.587 0.064,-0.705 l -0.098,-2.612 c -0.072,-0.173 -0.086,-0.317 -0.298,-0.532 0.472,-0.297 1.263,-0.354 1.81,-0.354 z"
     ns3:knockout="Off" /><path
     inkscape:connector-curvature="0"
     id="path359"
     d="m 68.813,97.431 c 0.123,0 0.271,0.049 1.28,0.06 -0.122,0.186 0.007,0.469 0.007,0.629 0,0.122 -0.051,0.343 -0.116,0.547 -0.173,-0.148 -0.23,-0.42 -0.393,-0.576 -0.141,-0.137 -0.531,-0.231 -0.656,-0.231 -0.258,0 -0.571,0.078 -0.571,0.431 0,0.522 1.671,1.322 1.565,1.476 -0.059,0.083 0.171,0.15 0.247,0.246 0.066,0.089 0.17,0.25 0.182,0.386 0.034,0.044 0.139,0.034 0.139,0.153 0,0.118 -0.1,-0.071 -0.1,0.047 0,0.119 0.1,0.071 0.1,0.19 0,0.118 -0.1,0.069 -0.1,0.192 0,0.118 0.025,0.023 0.097,0.037 -0.148,0.214 -0.253,0.51 -0.502,0.696 -0.212,0.152 -0.61,0.242 -0.732,0.242 -0.125,0 -0.623,-0.18 -0.923,-0.275 -0.144,-0.042 -0.34,-0.013 -0.505,-0.02 -0.009,-0.112 -0.057,-0.204 -0.057,-0.92 0,-0.096 0.051,-0.247 0.124,-0.356 0.379,0.541 0.638,1.143 1.287,1.143 0.267,0 0.57,-0.275 0.57,-0.524 0,-0.893 -2.032,-0.929 -2.032,-2.354 -0.002,-0.576 0.358,-1.219 1.089,-1.219 z"
     ns3:knockout="Off" /><path
     style="fill:#ffffff"
     inkscape:connector-curvature="0"
     id="path361"
     d="m 72.675,97.668 c 0.595,0 0.744,0.612 0.744,0.928 0,0.507 -0.223,0.976 -0.769,0.976 -0.115,0 -0.378,0.023 -0.371,-0.308 0.019,-0.714 -0.05,-0.951 -0.05,-1.073 0,-0.409 0.05,-0.523 0.446,-0.523 z"
     ns3:knockout="Off" /><path
     style="fill:#2b8cbe"
     inkscape:connector-curvature="0"
     id="path367"
     d="M 84.096,139.087 C 76.166,135.731 49.14,121.915 49.14,90.17 v -3.328 c 1.857,-0.574 6.523,-1.958 8.365,-2.463 0,0 2.824,-1.291 7.853,0.752 0,0 8.057,3.309 16.473,4.061 0.252,0.066 0.156,1.5 0.194,1.715 L 81.703,90.83 c -0.124,0.003 -0.217,-0.085 -0.378,-0.104 -0.993,-0.128 -1.81,-0.208 -2.88,-0.208 -1.734,0 -1.825,0.2 -4.084,0.543 -0.363,0.054 -1.456,0.349 -1.845,0.465 -1.264,0.379 -2.633,0.73 -3.985,0.73 -0.125,0 -1.298,-0.155 -1.693,-0.215 -0.488,-0.077 -0.863,0.093 -0.987,0.093 -0.271,0 -1.754,1.29 -2.223,1.517 -0.221,0.105 -0.955,-0.156 -0.957,0.234 l 0.029,17.702 h 18.089 c 0.209,0 1.236,1.605 1.236,1.613 v 8.055 c 0,0.118 -0.246,0.834 -0.246,0.952 0,0.119 -0.453,0.958 -0.768,1.327 -0.483,0.569 -1.048,0.596 -1.503,0.596 -2.513,0 -7.938,-3.775 -9.678,-5.625 0.025,-0.033 1.283,-1.107 1.283,-1.469 0,-0.493 -1.265,-1.005 -1.419,-1.091 -0.197,-0.11 -0.433,-0.284 -0.694,-0.445 -0.578,-0.358 -1.258,-0.704 -1.875,-1.119 -0.421,-0.287 -2.204,-1.752 -2.906,-1.783 -0.477,-0.021 -0.723,0.677 -0.723,0.876 l 0.064,1.896 c 0,0.117 0.228,1.29 0.357,1.898 0.161,0.759 0.412,1.577 0.69,2.371 0.026,0.083 0.686,1.549 1.101,1.549 0,0 1.886,-1.136 1.998,-1.136 0.249,0 1.406,1.363 1.751,1.675 0.729,0.673 1.511,1.557 2.386,2.296 1.247,1.058 2.632,2.001 3.931,2.972 0.47,0.35 0.937,0.73 1.398,1.062 0.667,0.471 1.408,0.952 2.173,1.418 0.319,0.199 0.763,0.317 1.084,0.505 0.965,0.57 2.408,1.504 3.491,1.504 h 0.732 c 1.085,0 2.53,-0.934 3.494,-1.504 0.319,-0.188 0.765,-0.306 1.085,-0.505 0.766,-0.466 1.505,-0.947 2.172,-1.418 0.46,-0.332 0.93,-0.712 1.399,-1.062 1.299,-0.971 2.682,-1.914 3.931,-2.972 0.876,-0.739 1.658,-1.623 2.386,-2.296 0.344,-0.312 1.503,-1.675 1.751,-1.675 0.112,0 2,1.136 2,1.136 0.413,0 1.075,-1.466 1.101,-1.549 0.273,-0.794 0.53,-1.612 0.69,-2.371 0.127,-0.608 0.357,-1.781 0.357,-1.898 v -2.075 c 0,-0.196 -0.295,-0.789 -0.693,-0.789 -0.703,0 -2.453,1.588 -2.872,1.875 -0.618,0.415 -1.296,0.761 -1.876,1.119 -0.26,0.161 -0.495,0.335 -0.695,0.445 -0.153,0.085 -1.418,0.598 -1.418,1.091 0,0.362 1.258,1.437 1.283,1.469 -1.739,1.85 -7.163,5.625 -9.674,5.625 -0.458,0 -1.019,-0.027 -1.509,-0.596 -0.313,-0.369 -0.763,-1.208 -0.763,-1.327 0,-0.118 -0.245,-0.833 -0.245,-0.952 V 113.2 c 0,-0.007 1.053,-1.613 1.264,-1.613 h 18.089 v -17.7 c -0.001,-0.391 -0.85,-0.284 -1.074,-0.388 -0.467,-0.228 -1.802,-1.479 -2.075,-1.479 -0.122,0 -0.858,0.075 -1.344,0.155 -0.396,0.059 -1.021,0.35 -1.591,0.184 -1.293,-0.371 -2.61,-0.078 -3.958,-0.803 -0.357,-0.192 -1.358,-0.463 -1.722,-0.518 -2.258,-0.345 -2.202,-0.568 -3.936,-0.568 -1.067,0 -1.892,-0.055 -2.885,0.075 -0.161,0.019 -0.301,0.072 -0.423,0.072 l -0.275,0.071 c 0.037,-0.216 -0.128,-1.429 0.125,-1.495 8.413,-0.752 16.469,-4.061 16.469,-4.061 5.032,-2.043 7.855,-0.752 7.855,-0.752 1.942,0.534 6.51,1.998 7.976,2.484 v 3.248 c 0.002,31.797 -27.027,45.619 -34.955,48.975 z"
     ns3:knockout="Off" /><path
     style="clip-rule:evenodd;fill:#ffffff;fill-rule:evenodd"
     inkscape:connector-curvature="0"
     id="path369"
     d="m 64.614,109.508 -0.361,0.483 V 93.883 l 0.361,-0.237 z m 1.203,-16.652 v 15.039 l -0.433,0.58 V 93.14 Z m -0.611,0.402 v 15.457 l -0.421,0.565 V 93.534 Z"
     ns3:knockout="Off" /><path
     style="fill:#ffffff"
     inkscape:connector-curvature="0"
     id="path371"
     d="m 65.208,109.73 c 0.073,0.029 0.161,0.062 0.263,0.096 0.258,0.08 0.603,0.168 1.036,0.245 1.114,0.196 2.818,0.312 5.18,-0.011 l 1.262,-0.252 2.477,-0.573 c 0,0 0.945,-0.284 2.207,-0.359 1.244,-0.073 2.803,0.057 4.06,0.875 l -0.073,0.076 c -1.227,-0.791 -2.75,-0.92 -3.98,-0.848 -0.771,0.046 -1.424,0.17 -1.81,0.259 0.401,-0.065 1.136,-0.164 1.984,-0.175 1.218,-0.017 2.683,0.144 3.726,0.848 l -0.073,0.076 c -1.014,-0.677 -2.442,-0.837 -3.651,-0.82 -1.274,0.018 -2.291,0.232 -2.291,0.232 l -2.558,0.511 -1.293,0.299 c -2.373,0.326 -4.074,0.198 -5.181,-0.014 -0.444,-0.085 -0.793,-0.183 -1.052,-0.27 -0.115,-0.036 -0.213,-0.069 -0.295,-0.1 z m 0.943,-1.396 c 0.044,0.018 0.095,0.038 0.152,0.059 1.656,0.602 3.724,0.433 5.379,0.025 l 3.635,-0.906 c 0,0 1.272,-0.315 2.87,-0.359 1.579,-0.043 3.49,0.178 4.8,1.244 l -0.072,0.075 c -1.28,-1.037 -3.155,-1.259 -4.726,-1.215 -1.585,0.043 -2.848,0.356 -2.848,0.356 l -3.635,0.906 c -1.678,0.413 -3.764,0.581 -5.44,-0.028 -0.067,-0.024 -0.126,-0.048 -0.176,-0.068 z m -0.498,0.737 c 0.285,0.104 0.789,0.261 1.469,0.375 1.107,0.185 2.683,0.255 4.561,-0.205 l 3.634,-0.906 c 0,0 1.145,-0.316 2.597,-0.367 1.418,-0.05 3.141,0.152 4.372,1.162 l -0.072,0.075 c -1.201,-0.981 -2.888,-1.184 -4.296,-1.134 -1.438,0.051 -2.574,0.364 -2.574,0.364 l -3.635,0.906 c -1.894,0.464 -3.485,0.394 -4.603,0.207 -0.708,-0.118 -1.226,-0.283 -1.512,-0.389 z"
     ns3:knockout="Off" /><path
     style="fill:#ffffff"
     inkscape:connector-curvature="0"
     id="path373"
     d="m 102.9,109.925 c -0.904,0.304 -2.906,0.741 -6.231,0.284 l -1.299,-0.3 -2.551,-0.51 c -0.007,-0.001 -3.765,-0.791 -5.872,0.542 l -0.073,-0.077 c 1.038,-0.665 2.464,-0.818 3.655,-0.801 0.844,0.012 1.576,0.109 1.979,0.174 -0.992,-0.227 -3.719,-0.688 -5.714,0.544 l -0.073,-0.077 c 1.245,-0.777 2.768,-0.901 3.988,-0.829 1.261,0.075 2.206,0.359 2.206,0.359 l 2.471,0.572 1.268,0.254 c 2.363,0.324 4.067,0.208 5.181,0.011 0.435,-0.077 0.779,-0.166 1.038,-0.245 0.252,-0.085 0.416,-0.16 0.496,-0.199 l 0.077,0.099 c -0.092,0.04 -0.272,0.115 -0.546,0.199 z m -0.519,-1.561 c -0.394,0.186 -2.369,0.986 -5.748,0.155 l -3.634,-0.906 c -0.008,-0.002 -4.911,-1.212 -7.508,0.809 l -0.072,-0.075 c 1.308,-1.022 3.182,-1.236 4.735,-1.193 1.598,0.044 2.871,0.359 2.871,0.359 l 3.634,0.906 c 1.658,0.408 3.723,0.578 5.38,-0.025 0.124,-0.045 0.216,-0.084 0.277,-0.113 z m 0.562,0.719 c -0.407,0.172 -2.853,1.105 -6.31,0.258 l -3.635,-0.906 c -0.007,-0.002 -4.357,-1.198 -6.805,0.718 l -0.072,-0.075 c 1.226,-0.965 2.914,-1.159 4.307,-1.11 1.452,0.051 2.596,0.367 2.596,0.367 l 3.633,0.906 c 1.879,0.46 3.456,0.39 4.562,0.205 0.873,-0.146 1.453,-0.363 1.657,-0.448 z"
     ns3:knockout="Off" /></g></svg>
